<?xml version="1.0" standalone="no"?>
<!DOCTYPE svg PUBLIC "-//W3C//DTD SVG 1.1//EN" "http://www.w3.org/Graphics/SVG/1.1/DTD/svg11.dtd" >
<!--
2013-9-30: Created.
-->
<svg>
<metadata>
Created by iconfont
</metadata>
<defs>

<font id="iconfont" horiz-adv-x="1024" >
  <font-face
    font-family="iconfont"
    font-weight="500"
    font-stretch="normal"
    units-per-em="1024"
    ascent="896"
    descent="-128"
  />
    <missing-glyph />
    
    <glyph glyph-name="x" unicode="x" horiz-adv-x="1001"
d="M281 543q-27 -1 -53 -1h-83q-18 0 -36.5 -6t-32.5 -18.5t-23 -32t-9 -45.5v-76h912v41q0 16 -0.5 30t-0.5 18q0 13 -5 29t-17 29.5t-31.5 22.5t-49.5 9h-133v-97h-438v97zM955 310v-52q0 -23 0.5 -52t0.5 -58t-10.5 -47.5t-26 -30t-33 -16t-31.5 -4.5q-14 -1 -29.5 -0.5
t-29.5 0.5h-32l-45 128h-439l-44 -128h-29h-34q-20 0 -45 1q-25 0 -41 9.5t-25.5 23t-13.5 29.5t-4 30v167h911zM163 247q-12 0 -21 -8.5t-9 -21.5t9 -21.5t21 -8.5q13 0 22 8.5t9 21.5t-9 21.5t-22 8.5zM316 123q-8 -26 -14 -48q-5 -19 -10.5 -37t-7.5 -25t-3 -15t1 -14.5
t9.5 -10.5t21.5 -4h37h67h81h80h64h36q23 0 34 12t2 38q-5 13 -9.5 30.5t-9.5 34.5q-5 19 -11 39h-368zM336 498v228q0 11 2.5 23t10 21.5t20.5 15.5t34 6h188q31 0 51.5 -14.5t20.5 -52.5v-227h-327z" />
    

    
    <glyph glyph-name="yuanqugonggao" unicode="&#58881;" d="M511.488 895.015385C229.021538 895.015385 0 665.993846 0 383.488 0 101.021538 229.021538-128 511.488-128c282.505846 0 511.527385 229.021538 511.527385 511.488C1023.015385 665.993846 793.993846 895.015385 511.488 895.015385z m160.925538-657.99877c-50.806154-20.48-78.651077 71.522462-227.328 55.926154-21.740308-2.481231-36.627692-16.384-29.538461-33.713231 5.12-12.681846 23.197538-53.208615 28.553846-65.693538 5.632-12.681846 24.930462-15.872 29.538462-26.584615 4.411077-10.043077 0.984615-22.724923-13.154462-28.081231l-62.267077-23.709539c-11.027692-4.371692-26.112 10.043077-32.689231 25.16677-6.616615 15.36-26.151385 60.297846-35.170461 81.053538-7.601231 17.092923-28.593231 1.220923-48.836923 28.356923 0 0-17.841231-5.632-22.724923-7.876923-28.317538-11.421538-66.875077 16.147692-78.611693 43.480615-11.736615 27.569231-4.647385 73.491692 23.670154 84.992 326.695385 133.041231 220.711385 262.931692 287.113846 290.028308 39.069538 15.872 116.736-69.316923 164.824616-181.641846 48.088615-112.049231 56.162462-225.595077 16.620307-241.703385z m102.518154 203.85477a11.185231 11.185231 0 1 0-21.464615 6.340923c0.984615 2.953846 1.693538 9.058462 1.693538 17.32923 0 14.178462-3.426462 29.302154-11.224615 44.701539a101.336615 101.336615 0 0 1-29.302154 35.406769 63.369846 63.369846 0 0 1-14.887384 8.782769 11.539692 11.539692 0 0 0-6.577231 14.41477 11.303385 11.303385 0 0 0 14.375384 6.57723c4.883692-1.693538 12.209231-5.632 20.283077-11.69723a128 128 0 0 0 49.545846-97.910154c0.236308-10.752-0.984615-19.062154-2.441846-23.945846z m68.608 18.313846a130.244923 130.244923 0 0 0-7.561846-39.305846 11.067077 11.067077 0 0 0-14.651077-6.340923 11.067077 11.067077 0 0 0-6.340923 14.414769c0.472615 1.181538 1.457231 4.135385 2.441846 8.270769 1.693538 7.325538 2.914462 15.36 3.66277 24.418462a151.276308 151.276308 0 0 1-16.620308 78.611692 152.103385 152.103385 0 0 1-75.421539 71.049846 43.047385 43.047385 0 0 1-8.310153 2.953846 10.948923 10.948923 0 0 0-8.073847 13.666462 10.948923 10.948923 0 0 0 13.705847 8.073846c8.270769-2.205538 21.464615-7.601231 36.352-17.092923a175.261538 175.261538 0 0 0 62.030769-68.608c15.123692-30.050462 20.755692-60.573538 18.786461-90.112z m-333.272615 137.964307c8.782769 3.387077 65.929846-52.263385 103.305846-139.421538 37.336615-87.158154 34.146462-157.223385 25.363692-160.689231-8.782769-3.623385-67.111385 42.771692-104.763077 129.929846-37.336615 86.921846-32.452923 166.754462-23.906461 170.141539z"  horiz-adv-x="1024" />

    
    <glyph glyph-name="fabuhuoyuan" unicode="&#58883;" d="M510.739692 896C228.667077 896 0 667.332923 0 385.260308s228.667077-510.700308 510.739692-510.700308 510.700308 228.627692 510.700308 510.700308C1021.44 667.332923 792.812308 896 510.739692 896z m-14.414769-810.535385l-274.235077 163.564308v272.541539l274.235077-149.897847v-286.168615zM222.050462 548.864l288.68923 136.270769 288.689231-136.270769-288.689231-163.524923-288.68923 163.524923z m577.378461-299.795692l-274.274461-163.485539v286.129231l274.235076 148.086154v-270.729846z"  horiz-adv-x="1024" />

    
    <glyph glyph-name="chazhaozhuanxiangongsi" unicode="&#58884;" d="M512-128C229.218462-128 0 101.218462 0 384S229.218462 896 512 896s512-229.218462 512-512-229.218462-512-512-512z m105.314462 459.303385c-2.756923 34.579692 115.790769 46.158769 115.790769 46.158769s-92.317538 7.246769-135.010462-27.963077c-54.035692-44.544 27.490462-72.782769 45.804308-90.978462 18.313846-18.195692 22.055385-40.566154-58.525539-42.338461-80.580923-1.811692-93.971692 0-93.971692 0s-42.535385-69.316923-75.579077-106.850462c0 0 154.781538-4.529231 217.048616 10.003693 62.306462 14.572308 128.236308 63.684923 99.84 120.083692-28.356923 56.398769-112.64 57.304615-115.396923 91.884308zM390.183385 588.721231C305.191385 588.721231 236.307692 520.310154 236.307692 435.908923s46.867692-156.435692 153.875693-319.369846c100.352 160.295385 153.875692 234.968615 153.875692 319.369846s-68.923077 152.812308-153.875692 152.812308zM827.076923 569.186462A90.820923 90.820923 0 0 1 735.940923 659.692308a90.820923 90.820923 0 0 1-91.096615-90.505846c0-50.018462 37.415385-99.524923 91.096615-189.164308C793.836308 470.882462 827.076923 519.168 827.076923 569.186462zM389.907692 356.430769a78.769231 78.769231 0 1 0 0 157.538462 78.769231 78.769231 0 0 0 0-157.538462z m346.584616 145.723077a59.076923 59.076923 0 1 0 0 118.153846 59.076923 59.076923 0 0 0 0-118.153846z"  horiz-adv-x="1024" />

    
    <glyph glyph-name="chazhaotongchengcheyuan" unicode="&#58885;" d="M512 896C229.218462 896 0 666.781538 0 384s229.218462-512 512-512 512 229.218462 512 512S794.781538 896 512 896z m-91.490462-844.681846H275.692308v66.56l144.81723 10.555077v-77.115077z m0 124.731077L275.692308 162.028308v63.015384l144.81723 24.339693v-73.334154z m0 124.967384L275.692308 272.068923v64.354462l144.81723 38.084923v-73.491693z m0 123.037539L275.692308 384.157538v67.229539l144.81723 48.994461v-76.327384z m160.689231-371.908923h-118.941538V566.114462l-230.360616-75.85477v-440.477538h-40.566153l0.157538 462.887384 307.908923 111.025231 81.762462-49.703384v-521.846154z m253.518769 0.157538h-183.847384V702.621538L374.665846 609.516308v28.435692l304.128 113.664 91.372308-79.635692v-577.969231h64.551384v-41.747692z"  horiz-adv-x="1024" />

    
    <glyph glyph-name="jiantou" unicode="&#58886;" d="M1007.296 384.768L494.016 896 384 786.432l403.328-401.664L384-16.896l110.016-109.568 513.28 511.232zM345.6 480c49.472 0 89.6-39.936 89.6-89.216 0-49.28-40.128-89.28-89.6-89.28-49.472 0-89.6 40-89.6 89.28S296.128 480 345.6 480M89.6 480a89.6 89.6 0 1 0 0-179.2 89.6 89.6 0 0 0 0 179.2"  horiz-adv-x="1024" />

    
    <glyph glyph-name="chazhaochangtucheyuan" unicode="&#58887;" d="M512-128C229.218462-128 0 101.218462 0 384S229.218462 896 512 896s512-229.218462 512-512-229.218462-512-512-512z m-315.076923 280.103385c0-6.734769 5.395692-12.091077 12.012308-12.091077h606.12923a12.091077 12.091077 0 0 1 0 24.182154H208.935385a12.091077 12.091077 0 0 1-12.012308-12.091077z m591.438769 275.062153a36.352 36.352 0 0 1-3.780923 7.68l-56.713846 118.429539-20.755692 37.336615H623.458462V632.044308c0 10.397538-2.56 17.683692-7.995077 22.134154-4.568615 3.741538-11.106462 5.513846-19.889231 5.513846H257.575385c-10.909538 0-24.300308-14.296615-24.300308-23.63077v-318.267076c0-12.642462 6.971077-23.630769 17.171692-29.656616a106.968615 106.968615 0 0 0 96.610462 60.258462c44.622769 0 79.241846-23.630769 95.271384-61.833846h111.458462c16.068923 37.888 48.443077 61.282462 92.632615 61.282461 44.189538 0 72.507077-23.394462 88.576-61.282461h27.844923c19.259077 0 27.175385 12.012308 27.175385 30.916923v99.091692a30.326154 30.326154 0 0 1-0.393846 4.962461l-1.260308 5.632z m-140.406154-109.528615c-39.581538 0-71.68-31.704615-71.68-70.695385 0-38.990769 32.098462-70.695385 71.68-70.695384 39.581538 0 71.68 31.744 71.68 70.695384 0 38.990769-32.098462 70.695385-71.68 70.695385z m-298.653538 0c-39.620923 0-71.68-31.704615-71.68-70.695385 0-38.990769 32.059077-70.695385 71.68-70.695384 39.581538 0 71.798154 31.744 71.798154 70.695384 0 38.990769-32.216615 70.695385-71.798154 70.695385zM610.461538 549.415385h69.001847l29.420307-98.461539H610.461538V549.415385z"  horiz-adv-x="1024" />

    
    <glyph glyph-name="yuanqufuwu" unicode="&#58888;" d="M512-128C229.218462-128 0 101.218462 0 384S229.218462 896 512 896s512-229.218462 512-512-229.218462-512-512-512z m263.325538 448.354462l-6.222769 107.126153c-0.078769 1.299692-0.472615 2.520615-0.669538 3.859693 0.315077 6.537846 0.393846 13.075692 0 19.692307-7.168 123.273846-127.527385 220.396308-268.918154 217.009231-141.390769-3.426462-250.249846-106.062769-243.121231-229.336615 0.275692-4.292923 0.905846-8.428308 1.457231-12.642462-0.630154-3.544615-0.827077-7.207385-0.630154-10.909538l6.222769-107.126154c1.732923-29.617231 30.601846-52.932923 64.59077-52.145231 33.949538 0.827077 60.022154 25.481846 58.328615 55.099077l-6.222769 107.126154c-1.693538 29.617231-30.562462 52.932923-64.512 52.145231-14.808615-0.393846-27.884308-5.395692-38.084923-13.233231 4.332308 104.999385 100.194462 189.676308 223.035077 192.669538 123.195077 2.953846 228.824615-77.390769 244.814769-182.350769a68.411077 68.411077 0 0 1-40.881231 12.288c-33.988923-0.827077-60.140308-25.481846-58.407385-55.138461l6.22277-107.126154c1.575385-27.411692 26.545231-49.191385 57.26523-51.633231-30.050462-47.616-82.707692-69.907692-114.215384-79.438769-0.866462 9.767385-6.971077 17.526154-13.902769 17.329231l-43.59877-1.024c-7.168-0.196923-12.484923-8.585846-11.894154-18.786462 0.590769-10.24 6.892308-18.353231 14.060308-18.195692l43.559385 1.063384c6.183385 0.118154 10.752 6.459077 11.618461 14.690462 98.461538 8.822154 144.699077 63.448615 165.139693 101.612308 9.964308 9.846154 15.793231 23.000615 14.966153 37.376z m-48.955076-154.663385c0 11.972923-5.238154 24.576-14.729847 36.745846-25.403077-18.510769-58.446769-33.161846-101.218461-37.021538-0.866462-8.192-8.822154-16.462769-14.966154-16.620308l-55.414154-1.024c-7.168-0.196923-31.822769-1.575385-31.822769 36.036923 0.157538 41.353846 23.985231 40.96 31.113846 41.156923h53.287385c6.971077 0.196923 16.896-8.073846 17.762461-17.841231 26.505846 7.995077 33.240615 6.734769 52.657231 34.540308a275.534769 275.534769 0 0 1-74.043077 27.293538c16.423385 18.983385 26.308923 44.780308 26.308923 74.043077v78.178462c0 61.203692-42.732308 107.401846-99.367384 107.401846-56.713846 0-99.406769-46.198154-99.40677-107.401846v-78.139077c0-30.877538 10.909538-57.895385 28.908308-77.115077-68.411077-17.880615-128.630154-56.910769-128.630154-100.706461 0-0.945231-0.118154-1.929846-0.236308-2.914462-0.669538-6.537846-2.205538-21.858462 15.163077-31.035077 37.297231-19.613538 108.268308-31.310769 189.833847-31.310769 81.604923 0 152.576 11.697231 189.833846 31.310769 17.408 9.176615 15.832615 24.812308 15.202461 31.507692-0.118154 0.984615-0.236308 1.969231-0.236307 2.914462z"  horiz-adv-x="1024" />

    
    <glyph glyph-name="zhaozu" unicode="&#58889;" d="M434.136615 586.082462l-85.858461-113.427693H197.277538v-332.248615h629.76v332.288h-141.154461L593.132308 584.270769a84.48 84.48 0 0 1-3.032616 67.190154A84.046769 84.046769 0 0 1 513.969231 699.076923a84.676923 84.676923 0 0 1-79.832616-112.994461z m139.027693-32.216616L634.092308 472.615385h-236.307693l59.313231 79.044923c15.005538-13.627077 34.973538-21.937231 56.871385-21.937231 23.04 0 43.913846 9.216 59.195077 24.142769zM512-128C229.218462-128 0 101.218462 0 384S229.218462 896 512 896s512-229.218462 512-512-229.218462-512-512-512zM288.452923 353.004308H343.04c12.603077 0 22.488615-2.835692 29.774769-8.664616 7.443692-6.025846 11.342769-14.887385 11.342769-26.584615a31.507692 31.507692 0 0 0-5.828923-18.825846 29.184 29.184 0 0 0-17.211077-10.988308v-0.354461c12.051692-2.638769 18.786462-10.24 20.204308-23.000616l1.969231-19.534769a33.870769 33.870769 0 0 1 6.695385-18.589539h-15.753847a34.382769 34.382769 0 0 0-5.12 16.817231l-1.614769 16.856616c-0.708923 7.443692-3.387077 12.957538-7.955692 16.147692-4.292923 3.150769-10.279385 4.568615-18.274462 4.568615h-38.281846V226.461538h-14.532923v126.54277z m119.808 0h89.678769v-12.603077h-75.145846v-42.338462h70.892308v-12.603077h-70.892308v-46.395077h78.178462V226.461538h-92.711385v126.54277z m112.876308 0h15.241846l71.640615-102.951385h0.512v102.951385h14.532923V226.461538h-14.887384l-71.955693 104.054154h-0.551384V226.461538h-14.532923v126.54277z m117.681231 0h103.699692v-12.603077h-44.662154V226.461538h-14.336v113.979077H638.818462v12.563693zM303.261538 340.676923v-47.261538h43.52a23.512615 23.512615 0 0 1 23.433847 23.630769c0 12.681846-10.476308 23.630769-23.433847 23.630769H303.261538z"  horiz-adv-x="1024" />

    
    <glyph glyph-name="gengduo" unicode="&#58890;" d="M584.576 356.48c0.64 1.28 1.792 2.432 2.432 3.84a63.36 63.36 0 0 1-12.8 73.6L107.008 878.592a63.232 63.232 0 0 1-89.6-2.56c-24.064-25.6-23.04-66.048 2.56-90.368l418.944-398.976L21.504-18.176A64.128 64.128 0 0 1 65.536-128a63.104 63.104 0 0 1 44.032 17.92l462.848 448.896c0.896 0.896 1.28 2.176 2.176 3.072l2.048 1.792c3.584 3.84 5.504 8.448 7.936 12.8M1096.576 356.48c0.64 1.28 1.792 2.432 2.432 3.84a63.36 63.36 0 0 1-12.8 73.6L619.008 878.592a63.232 63.232 0 0 1-89.6-2.56c-24.064-25.6-23.04-66.048 2.56-90.368l418.944-398.976-417.408-404.864A64.128 64.128 0 0 1 577.536-128a63.104 63.104 0 0 1 44.032 17.92l462.848 448.896c0.896 0.896 1.28 2.176 2.176 3.072l2.048 1.792c3.584 3.84 5.504 8.448 7.936 12.8"  horiz-adv-x="1152" />

    
    <glyph glyph-name="banner_left" unicode="&#58891;" d="M802.705892 820.022999L311.108072 382.455544l491.59782-437.499192c17.20234-16.656234 17.20234-43.688482 0-60.378848-17.134077-16.724497-44.985484-16.724497-62.119561 0L217.348493 350.132893a41.708848 41.708848 0 0 0-12.458044 32.356783c-0.614369 11.604753 3.310768 23.448428 12.458044 32.356782L740.586331 880.401847a44.780694 44.780694 0 0 0 62.119561 0c17.20234-16.656234 17.20234-43.722614 0-60.378848"  horiz-adv-x="1024" />

    
    <glyph glyph-name="banner_right" unicode="&#58892;" d="M221.282712 820.020466l491.614206-437.58204L221.282712-55.041216a41.744371 41.744371 0 0 1 0-60.38086c17.134648-16.725055 44.986984-16.725055 62.121631 0l523.255279 465.570907c9.147581 8.874519 13.072849 20.718588 12.458459 32.357861a41.744371 41.744371 0 0 1-12.458459 32.35786L283.404343 880.401327a44.782187 44.782187 0 0 1-62.121631 0 41.744371 41.744371 0 0 1 0-60.380861"  horiz-adv-x="1024" />

    
    <glyph glyph-name="guanyuyuanqu" unicode="&#58895;" d="M512-128C229.233778-128 0 101.233778 0 384S229.233778 896 512 896s512-229.233778 512-512-229.233778-512-512-512z m0 28.444444c267.064889 0 483.555556 216.490667 483.555556 483.555556S779.064889 867.555556 512 867.555556 28.444444 651.064889 28.444444 384s216.490667-483.555556 483.555556-483.555556z m44.373333 796.330667c42.752-2.332444 75.52-38.570667 73.187556-80.952889-2.332444-42.382222-38.912-74.894222-81.692445-72.561778-42.752 2.304-75.548444 38.542222-73.187555 80.952889 2.332444 42.382222 38.883556 74.865778 81.664 72.533334z m-192.625777-329.898667s150.272 109.141333 199.452444 87.864889c49.152-21.276444-17.322667-155.818667-22.186667-175.729777-4.835556-19.911111-35.982222-172.288 66.503111-87.864889 0 0 51.228444 33.649778-22.186666-43.918223-73.386667-77.568-166.172444-102.257778-177.265778-43.918222-8.334222 43.975111 35.555556 203.491556 44.344889 263.566222 2.844444 19.626667-22.186667 0-22.186667 0s-72.021333-50.147556-88.632889-21.959111c-2.645333 4.494222 15.132444 18.261333 22.186667 21.959111z"  horiz-adv-x="1024" />

    
    <glyph glyph-name="huoyuanxinxi" unicode="&#58896;" d="M512-128C229.233778-128 0 101.233778 0 384S229.233778 896 512 896s512-229.233778 512-512-229.233778-512-512-512z m0 995.555556C244.935111 867.555556 28.444444 651.064889 28.444444 384s216.490667-483.555556 483.555556-483.555556 483.555556 216.490667 483.555556 483.555556S779.064889 867.555556 512 867.555556z m14.620444-498.176l277.959112 159.004444v-290.673778l-277.959112-175.530666v307.2z m-307.2 190.179555L512 705.820444l292.579556-146.261333L512 384 219.420444 559.559111z m277.959112-497.379555l-277.959112 175.530666V530.289778l277.959112-160.910222v-307.2z"  horiz-adv-x="1024" />

    
    <glyph glyph-name="zhuanxianxinxi" unicode="&#58897;" d="M512-128C229.233778-128 0 101.233778 0 384S229.233778 896 512 896s512-229.233778 512-512-229.233778-512-512-512z m0 28.444444c267.064889 0 483.555556 216.490667 483.555556 483.555556S779.064889 867.555556 512 867.555556 28.444444 651.064889 28.444444 384s216.490667-483.555556 483.555556-483.555556zM604.558222 339.598222c-2.503111 31.630222 105.898667 42.211556 105.898667 42.211556s-84.423111 6.656-123.505778-25.571556c-49.436444-40.760889 25.144889-66.588444 41.898667-83.228444 16.782222-16.64 20.195556-37.091556-53.504-38.741334-73.728-1.649778-85.987556 0-85.987556 0s-38.940444-63.402667-69.12-97.735111c0 0 141.596444-4.181333 198.542222 9.159111 57.002667 13.283556 117.333333 58.225778 91.363556 109.824-25.969778 51.598222-103.054222 52.451556-105.585778 84.081778z m-207.815111 235.491556c-77.738667 0-140.743111-62.577778-140.743111-139.804445 0-77.198222 42.837333-143.104 140.743111-292.152889 91.818667 146.602667 140.8 214.954667 140.8 292.124445 0 77.255111-63.032889 139.832889-140.8 139.832889z m0-213.845334a74.325333 74.325333 0 0 0-74.552889 74.040889 74.325333 74.325333 0 0 0 74.552889 74.069334 74.325333 74.325333 0 0 0 74.609778-74.069334 74.325333 74.325333 0 0 0-74.609778-74.040889zM796.444444 557.198222A83.086222 83.086222 0 0 1 713.102222 640a83.057778 83.057778 0 0 1-83.370666-82.801778c0-45.738667 34.247111-91.022222 83.342222-173.027555C766.008889 467.256889 796.444444 511.431111 796.444444 557.198222z m-127.544888 0c0 24.206222 19.768889 43.861333 44.174222 43.861334 24.376889 0 44.174222-19.626667 44.174222-43.861334 0-24.234667-19.797333-43.861333-44.174222-43.861333-24.405333 0-44.174222 19.626667-44.174222 43.861333z"  horiz-adv-x="1024" />

    
    <glyph glyph-name="cheyuanxinxi" unicode="&#58898;" d="M512-128C229.233778-128 0 101.233778 0 384S229.233778 896 512 896s512-229.233778 512-512-229.233778-512-512-512z m0 28.444444c267.064889 0 483.555556 216.490667 483.555556 483.555556S779.064889 867.555556 512 867.555556 28.444444 651.064889 28.444444 384s216.490667-483.555556 483.555556-483.555556zM249.514667 290.218667V556.373333c0 14.791111 12.003556 26.766222 26.794666 26.766223h266.097778c14.791111 0 26.794667-11.975111 26.794667-26.766223v-266.126222c0-4.920889-3.982222-8.903111-8.931556-8.903111H258.446222a8.931556 8.931556 0 0 0-8.931555 8.903111z m214.897777-91.164445a55.552 55.552 0 1 0-111.104 0.028445 55.552 55.552 0 0 0 111.104 0z m-27.790222 0a27.761778 27.761778 0 1 1-55.552 0 27.761778 27.761778 0 0 1 55.552 0z m-75.633778 55.552H236.487111a8.931556 8.931556 0 0 1-8.931555-8.931555v-27.079111c0-4.920889 3.982222-8.931556 8.931555-8.931556h99.783111a73.244444 73.244444 0 0 0 24.718222 44.942222z m394.126223-55.552a55.552 55.552 0 1 0-111.104 0.056889 55.552 55.552 0 0 0 111.104-0.056889z m-27.790223 0a27.761778 27.761778 0 1 1-55.552 0 27.761778 27.761778 0 0 1 55.552 0zM853.333333 245.674667v-27.079111c0-4.920889-3.982222-8.931556-8.931555-8.931556h-72.305778a73.443556 73.443556 0 0 1-72.533333 62.776889c-36.892444 0-67.413333-27.306667-72.590223-62.776889h-145.578666a73.244444 73.244444 0 0 1-24.689778 44.942222h138.040889v255.288889c0 9.841778 7.964444 17.834667 17.834667 17.834667H696.888889c23.751111 0 45.937778-11.776 59.221333-31.459556l54.328889-80.440889c7.964444-11.804444 12.231111-25.713778 12.231111-39.936v-121.287111h21.731556c4.920889 0 8.931556-3.982222 8.931555-8.931555z m-90.595555 168.106666l-43.434667 61.724445a8.931556 8.931556 0 0 1-7.310222 3.783111h-67.783111a8.931556 8.931556 0 0 1-8.931556-8.931556v-61.724444c0-4.920889 3.982222-8.931556 8.931556-8.931556h111.217778a8.931556 8.931556 0 0 1 7.310222 14.08z"  horiz-adv-x="1024" />

    
    <glyph glyph-name="yuanquzhaoshang" unicode="&#58899;" d="M512-128C229.233778-128 0 101.233778 0 384S229.233778 896 512 896s512-229.233778 512-512-229.233778-512-512-512z m0 28.444444c267.064889 0 483.555556 216.490667 483.555556 483.555556S779.064889 867.555556 512 867.555556 28.444444 651.064889 28.444444 384s216.490667-483.555556 483.555556-483.555556zM767.715556 178.887111a86.158222 86.158222 0 0 1-4.067556 19.968 256.341333 256.341333 0 0 1-194.133333 189.269333l-2.417778-0.881777 2.417778 0.881777a159.772444 159.772444 0 0 1 102.314666 149.134223A159.573333 159.573333 0 0 1 512.483556 696.888889a159.601778 159.601778 0 0 1-159.431112-159.630222 159.800889 159.800889 0 0 1 104.391112-149.902223l-0.568889-0.113777-2.389334 0.881777a256.341333 256.341333 0 0 1-194.133333-189.269333 86.158222 86.158222 0 0 1-4.352-27.136 86.385778 86.385778 0 0 1 86.300444-86.471111h339.399112a86.385778 86.385778 0 0 1 86.016 93.639111z m-302.734223 204.714667c-0.967111 0.682667-1.905778 1.422222-2.844444 2.133333l2.844444-2.133333z m15.872-2.872889l-0.455111 0.085333 0.455111-0.085333z m-2.844444 0.568889c-0.398222 0.113778-0.796444 0.227556-1.194667 0.284444l1.194667-0.284444z m-2.588445 0.597333l-2.247111 0.568889 2.247111-0.568889z m-2.986666 0.654222l-2.844445 0.881778 2.844445-0.881778z m-3.612445 0.597334l-2.844444 1.365333 2.844444-1.365333z m43.605334-284.245334v0.853334l-0.853334-0.853334-74.609777 68.750223 55.978666 131.925333c-17.664 18.375111-29.468444 50.062222-29.468444 50.062222l-0.170667 1.962667c17.635556 14.563556 34.190222 18.972444 48.270222 18.488889h0.853334c14.108444 0.483556 30.634667-3.925333 48.270222-18.488889l-0.170667-1.934222s-11.804444-31.744-29.468444-50.090667l55.978666-131.925333-74.609777-68.750223z"  horiz-adv-x="1024" />

    
    <glyph glyph-name="yuanqufuwu1" unicode="&#58900;" d="M512-128C229.233778-128 0 101.233778 0 384S229.233778 896 512 896s512-229.233778 512-512-229.233778-512-512-512z m0 28.444444c267.064889 0 483.555556 216.490667 483.555556 483.555556S779.064889 867.555556 512 867.555556 28.444444 651.064889 28.444444 384s216.490667-483.555556 483.555556-483.555556zM775.338667 320.341333l-6.257778 107.150223c-0.056889 1.308444-0.455111 2.531556-0.625778 3.84 0.284444 6.542222 0.369778 13.084444-0.028444 19.712-7.139556 123.278222-127.516444 220.387556-268.913778 217.031111-141.425778-3.441778-250.254222-106.097778-243.114667-229.376 0.256-4.266667 0.910222-8.448 1.450667-12.629334-0.597333-3.555556-0.853333-7.196444-0.625778-10.922666l6.229333-107.121778c1.706667-29.610667 30.606222-52.935111 64.568889-52.138667 33.962667 0.853333 60.046222 25.486222 58.368 55.096889l-6.257777 107.121778c-1.706667 29.639111-30.577778 52.963556-64.512 52.138667-14.791111-0.341333-27.875556-5.404444-38.058667-13.226667 4.266667 104.988444 100.181333 189.696 223.004444 192.654222 123.192889 2.958222 228.864-77.368889 244.821334-182.328889a68.408889 68.408889 0 0 1-40.903111 12.259556c-33.962667-0.796444-60.103111-25.457778-58.368-55.096889l6.200888-107.121778c1.592889-27.420444 26.567111-49.208889 57.258667-51.655111-30.037333-47.616-82.716444-69.916444-114.204444-79.445333-0.853333 9.784889-6.940444 17.521778-13.937778 17.351111l-43.52-1.052445c-7.196444-0.170667-12.515556-8.590222-11.946667-18.773333 0.597333-10.24 6.940444-18.375111 14.08-18.204444l43.548445 1.052444c6.172444 0.142222 10.752 6.485333 11.605333 14.705778 98.446222 8.817778 144.725333 63.459556 165.148444 101.632 9.955556 9.870222 15.815111 22.983111 14.990223 37.347555M726.357333 165.688889c0 11.975111-5.233778 24.547556-14.734222 36.750222-25.372444-18.488889-58.424889-33.166222-101.233778-36.977778-0.853333-8.248889-8.789333-16.497778-14.933333-16.668444l-55.438222-1.024c-7.111111-0.199111-31.800889-1.536-31.800889 36.039111 0.142222 41.358222 23.978667 40.988444 31.146667 41.159111h53.276444c6.968889 0.199111 16.867556-8.078222 17.749333-17.863111 26.481778 8.021333 33.251556 6.769778 52.622223 34.56a275.541333 275.541333 0 0 1-74.012445 27.306667c16.440889 18.972444 26.311111 44.743111 26.311111 74.069333v78.165333c0 61.184-42.752 107.349333-99.384889 107.349334-56.661333 0-99.384889-46.165333-99.384889-107.349334v-78.165333c0-30.862222 10.894222-57.884444 28.899556-77.084444-68.408889-17.92-128.625778-56.945778-128.625778-100.721778 0-0.938667-0.142222-1.934222-0.256-2.901334-0.654222-6.542222-2.190222-21.902222 15.189334-31.061333 37.262222-19.626667 108.259556-31.317333 189.838222-31.317333 81.607111 0 152.547556 11.719111 189.838222 31.345778 17.379556 9.159111 15.815111 24.746667 15.160889 31.459555-0.085333 0.995556-0.227556 1.991111-0.227556 2.929778"  horiz-adv-x="1024" />

    
    <glyph glyph-name="xiangshang" unicode="&#58901;" d="M512-128C229.233778-128 0 101.233778 0 384S229.233778 896 512 896s512-229.233778 512-512-229.233778-512-512-512z m0 28.444444c267.064889 0 483.555556 216.490667 483.555556 483.555556S779.064889 867.555556 512 867.555556 28.444444 651.064889 28.444444 384s216.490667-483.555556 483.555556-483.555556zM742.4 249.457778c11.889778-10.894222 32.284444-10.894222 44.629333 0 12.544 11.349333 12.544 29.297778 0 40.476444l-252.501333 228.096c-12.544 10.922667-32.711111 10.922667-45.027556 0l-252.672-228.124444c-12.373333-11.121778-12.373333-29.098667 0-40.419556a34.759111 34.759111 0 0 1 44.828445 0l230.058667 207.872 230.684444-207.872"  horiz-adv-x="1024" />

    
    <glyph glyph-name="fuwurexian" unicode="&#58902;" d="M791.632311 534.852618c16.124936-19.452304 33.36966-39.352523 51.798158-59.604675l51.190274-59.604675c18.780432-21.819854 38.168748-44.023636 58.100961-66.611344a1109.069277 1109.069277 0 0 0 62.708086-79.4729c16.508863-23.355562 29.530389-44.79149 39.128565-64.275788 9.598176-19.484298 16.124936-37.400894 19.548286-53.749787 3.455343-16.380888 5.183015-32.729781 5.183015-49.110669v-75.953569c0-23.355562-3.839271-44.407563-11.517811-63.124007a148.771733 148.771733 0 0 0-31.609994-48.502784c-13.437447-13.62941-28.794529-24.15541-46.039253-31.546006A137.221928 137.221928 0 0 0 935.508975-127.805477H225.53187c-20.700067 0-40.47231 3.519331-59.252742 10.526a152.035113 152.035113 0 0 0-49.494596 29.786341 144.772493 144.772493 0 0 0-33.913556 46.167228c-8.446395 17.916596-12.669593 38.168748-12.669593 60.78845v89.9989c0 18.68445 1.727672 36.601046 5.183015 53.749788a221.333947 221.333947 0 0 0 18.972395 53.749787c9.214249 18.716444 21.851848 38.776632 37.976785 60.21256a805.926874 805.926874 0 0 0 60.980414 70.706566c19.932213 21.78786 40.47231 43.831672 61.556304 66.035453 21.115988 22.203781 40.088383 42.231976 56.94918 60.148572l57.52507 60.78845h422.319759z m-216.310901-442.923844c19.932213 0 38.712645 3.871264 56.373289 11.677781a147.491977 147.491977 0 0 1 46.039253 31.546006c13.021526 13.245483 23.387556 29.018486 31.034103 47.351003 7.678541 18.300523 11.517812 37.592857 11.517812 57.84501a143.972645 143.972645 0 0 1-11.517812 57.269119 150.05149 150.05149 0 0 1-31.034103 46.743118 147.491977 147.491977 0 0 1-46.039253 31.546007 137.989782 137.989782 0 0 1-56.373289 11.709775 142.05301 142.05301 0 0 1-56.949179-11.709775 145.732311 145.732311 0 0 1-46.615144-31.546007 150.05149 150.05149 0 0 1-31.034103-46.743118 143.972645 143.972645 0 0 1-11.517812-57.269119c0-20.252152 3.839271-39.544487 11.517812-57.84501 7.646547-18.332517 18.012578-34.10552 31.034103-47.351003 13.05352-13.245483 28.570572-23.771483 46.615144-31.546006a142.05301 142.05301 0 0 1 56.949179-11.677781zM1151.787882 676.26575v-73.586019c0-20.284146-7.10265-37.432888-21.275958-51.446225a70.226657 70.226657 0 0 0-51.190274-21.052h-143.844669c-19.964207 0-36.825003 7.038663-50.646378 21.052a70.514602 70.514602 0 0 0-20.700067 51.414231V676.26575H287.664065v-73.586019c0-20.284146-6.910687-37.432888-20.700067-51.446225a68.339016 68.339016 0 0 0-50.646377-21.052H72.504945c-19.964207 0-37.016967 7.038663-51.190274 21.052A69.554785 69.554785 0 0 0 0.00672 602.615743V678.601306c0 9.374219 2.303562 17.340705 6.910687 23.995441 4.607125 6.590748 10.334037 12.637599 17.276717 18.108559a137.253922 137.253922 0 0 0 23.00363 14.589228c8.414401 4.287185 16.860796 9.150261 25.275197 14.621222 8.446395 4.671112 27.450784 15.005149 56.981174 30.970116 29.530389 15.996961 66.73932 32.537818 111.594797 49.654565C285.936393 847.689179 336.934704 862.886292 394.107841 876.163769 451.248984 889.377258 512.037434 896 576.473191 896c73.650006 0 139.429508-6.622742 197.338506-19.868225 57.908997-13.245483 108.139454-28.442596 150.723363-45.591338 42.551915-17.116748 76.721423-33.689599 102.380547-49.654565 25.723113-15.996961 43.191794-26.299003 52.374049-30.970116 9.214249-5.438967 18.044572-10.334037 26.458973-14.621222 8.446395-4.287185 16.124936-9.150261 23.035623-14.589228 6.878693-5.438967 12.477629-11.517812 16.668833-18.140553 4.223198-6.622742 6.334796-14.589228 6.334797-23.963447v-2.335556z"  horiz-adv-x="1152" />

    
    <glyph glyph-name="dingwei" unicode="&#58903;" d="M512 896C323.470222 896 170.666667 732.273778 170.666667 530.318222S512-128 512-128s341.333333 456.305778 341.333333 658.318222C853.333333 732.273778 700.529778 896 512 896z m0-512C436.622222 384 375.466667 449.479111 375.466667 530.318222c0 80.782222 61.155556 146.204444 136.533333 146.204445s136.533333-65.422222 136.533333-146.204445S587.377778 384 512 384z"  horiz-adv-x="1024" />

    
    <glyph glyph-name="bitianxinghao" unicode="&#58908;" d="M913.551885 262.142885l-243.711304 140.726455 243.711304 140.58017a75.336928 75.336928 0 0 1 27.501636 102.692278l-3.803418 6.582839a75.336928 75.336928 0 0 1-102.692278 27.501635l-243.565018-140.726455V820.806432A75.336928 75.336928 0 0 1 515.94845 895.997074h-7.606836a75.336928 75.336928 0 0 1-75.044357-75.190642v-281.306625L189.732239 680.226262a75.336928 75.336928 0 0 1-102.692278-27.501635l-3.803418-6.582839a75.336928 75.336928 0 0 1 27.501636-102.692278l243.711303-140.58017-243.711303-140.726455a75.336928 75.336928 0 0 1-27.501636-102.692278l3.803418-6.436553c20.626227-35.839898 66.85238-48.274148 102.692278-27.501635l243.565018 140.580169v-281.306625c0-41.252454 33.645618-75.190642 75.044357-75.190642h7.606836a75.336928 75.336928 0 0 1 75.044357 75.190642V266.092588l243.565018-140.580169c35.839898-20.626227 81.919766-8.338262 102.692278 27.501635l3.803418 6.436553a75.336928 75.336928 0 0 1-27.501636 102.692278"  horiz-adv-x="1024" />

    
    <glyph glyph-name="duoxuanxuanzhong" unicode="&#58909;" d="M874.688 896H149.312C67.008 896 0 829.952 0 748.672v-729.344C0-61.952 67.008-128 149.312-128h725.376C956.992-128 1024-61.888 1024 19.328V748.672C1024 829.952 956.992 896 874.688 896z m-60.416-365.824L468.992 189.44a34.816 34.816 0 0 0-48.96 0l-210.176 207.36a33.856 33.856 0 0 0-0.256 48.32 34.944 34.944 0 0 0 48.96 0.256l0.256-0.256 185.664-183.168 320.832 316.48a34.944 34.944 0 0 0 48.96 0 33.856 33.856 0 0 0 0-48.32z"  horiz-adv-x="1024" />

    
    <glyph glyph-name="xinxiguanli" unicode="&#58914;" d="M738.196211 560.882526H236.058947a41.822316 41.822316 0 0 1 0-83.806315h502.083369a41.822316 41.822316 0 0 1 0 83.806315z m0 167.558737H236.058947a41.822316 41.822316 0 0 1 0-83.806316h502.083369a41.822316 41.822316 0 0 1 0 83.806316z m209.165473-497.178947V812.247579C947.361684 858.435368 909.904842 896 863.663158 896H110.645895C64.404211 896 26.947368 858.489263 26.947368 812.193684V-25.6c0-46.241684 37.456842-83.752421 83.698527-83.752421h493.46021c13.312-2.694737 27.701895 1.077895 37.99579 11.425684l293.402947 293.726316a41.876211 41.876211 0 0 1 11.856842 35.462737z m-292.864-198.332632v150.905263h150.743579l-150.743579-150.905263z m209.165474 234.711579h-250.98779a41.822316 41.822316 0 0 1-41.822315-41.87621V-25.6H152.468211a41.822316 41.822316 0 0 0-41.822316 41.930105V770.317474c0 23.174737 18.701474 41.876211 41.822316 41.87621h669.372631c23.174737 0 41.822316-18.701474 41.822316-41.87621v-502.676211z"  horiz-adv-x="1024" />

    
    <glyph glyph-name="tingcheguanli" unicode="&#58920;" d="M740.028632 484.244211c0-56.266105-11.210105-109.945263-44.085895-142.713264-32.929684-32.875789-76.8-40.421053-135.545263-40.421052H458.266947v-195.098948a40.528842 40.528842 0 1 0-81.003789 0V550.534737a116.412632 116.412632 0 0 0 116.412631 116.412631h66.721685c78.578526 0 110.915368-14.767158 137.377684-49.259789 28.240842-36.864 42.253474-77.177263 42.253474-133.443368m-73.943579-0.215579c0 44.463158-10.563368 75.021474-31.744 91.459368-21.072842 16.384-46.133895 21.072842-88.387369 21.072842h-8.245895c-40.205474 0-75.129263-15.252211-79.440842-69.200842v-153.061053l80.464842 0.053895c42.253474 0 74.536421 1.778526 95.609264 18.216421 21.180632 16.384 31.744 46.888421 31.744 91.459369M512-128a512 512 0 1 0 0 1024 512 512 0 0 0 0-1024z m0 86.231579a425.768421 425.768421 0 1 1 0 851.536842 425.768421 425.768421 0 0 1 0-851.536842z"  horiz-adv-x="1024" />

    
    <glyph glyph-name="lianxixinxi" unicode="&#58922;" d="M866.898121 660.92107a284.802833 284.802833 0 0 1-183.848863 118.873416 27.321337 27.321337 0 0 1-9.820787-53.66525 230.392879 230.392879 0 0 0 148.801219-96.206481 230.020527 230.020527 0 0 0 37.095581-173.329915 27.181705 27.181705 0 0 1 21.875687-31.649931 27.181705 27.181705 0 0 1 31.696475 21.782599 283.778865 283.778865 0 0 1-45.799312 214.195562M650.701167 609.11758a112.124534 112.124534 0 0 0 89.969583-130.369789 27.460969 27.460969 0 0 1 26.995529-32.255003 27.414425 27.414425 0 0 1 26.809354 22.341128 166.860297 166.860297 0 0 1-133.814046 193.948914 27.228249 27.228249 0 1 1-9.96042-53.66525M604.157152 516.029548a40.21403 40.21403 0 0 0 32.301547-46.869824 27.228249 27.228249 0 1 1 53.66525-9.867331A94.34472 94.34472 0 0 1 674.904056 530.272017a94.484352 94.484352 0 0 1-60.926117 39.422782 27.228249 27.228249 0 0 1-31.649931-21.968776 27.135161 27.135161 0 0 1 21.875688-31.649931M747.512721 67.857219c-2.187569-3.909697-3.816609-6.516162-4.887122-8.610643-14.382101-24.80796-35.652716-47.28872-58.738548-60.367589a141.959249 141.959249 0 0 0-71.445065-18.105622c-121.386793 0-276.331822 124.179434-376.820352 301.791399C110.418231 503.974648 104.414053 747.818747 222.496221 815.354115c23.737448 13.497765 51.663858 19.455399 82.196732 17.593638a31.184491 31.184491 0 0 1 6.60925 0.372352 15.452613 15.452613 0 0 0 3.81661 0.558528c32.115371 0 75.261674-61.391557 85.687533-143.634833 6.888514-54.363411-2.187569-105.189476-22.992744-129.531997-9.774243-11.403284-18.152166-11.542916-20.805175-11.58946-2.420289 0-27.647145-0.837792-44.682255-21.829143-13.032324-16.011141-16.755846-37.700653-11.35674-64.510006a34.721836 34.721836 0 0 1 1.39632-4.607858 902.721189 902.721189 0 0 1 123.993259-215.871145 21.782599 21.782599 0 0 1 3.909697-4.095874c12.75306-13.125412 28.531482-19.874295 45.799312-19.874295 27.460969 0 48.778129 17.73327 51.105329 19.874295a24.063256 24.063256 0 0 1 5.166386 6.050722c6.329986 10.053507 20.246647 12.334164 30.858683 12.334164 30.579418 0 70.653816-17.174742 107.09778-45.892399 63.579126-50.034817 91.691711-115.8946 77.263067-142.843585m-36.769773 192.831858c-46.35784 36.443964-91.040095 53.153266-133.86059 53.153266-32.068827 0-70.886536-9.960419-86.571869-31.556843-3.258081-2.187569-9.774243-5.585282-14.661365-0.372352-0.884336 0.93088-6.37653 9.820787-10.379316 14.475189-0.325808 0.186176-0.46544 0.605072-0.791248 0.837792a587.850921 587.850921 0 0 0-55.294291 83.313789c-18.059078 31.882651-34.628748 59.483252-47.567984 93.739648-3.956241 10.518948-5.119842 9.076083-3.956242 10.518948 0.837792 1.023968 8.889907 3.583889 8.936451 3.630433 30.439786 11.170564 40.493294 19.176135 59.855605 35.745804 22.434216 19.083047 47.009456 99.138754 37.933373 170.118378C450.561899 803.066494 380.140803 895.828718 314.793005 895.828718h-1.861761c-3.071905-0.139632-6.190354 0.372352-9.029539 0C263.734219 897.457759 223.98563 886.659547 191.31173 869.810613c-158.715094-81.405484-159.645975-359.785243-15.359525-614.986082 111.286742-197.067363 292.854948-343.262117 435.000373-343.262117 36.025068 0 74.842778 9.122627 103.932787 25.73884a245.286964 245.286964 0 0 1 81.172764 77.263067c2.839185 5.026754-0.46544 0.23272 2.839185 5.026753 48.173056 69.816024-3.118449 173.934987-88.154366 241.098003"  horiz-adv-x="1024" />

    
    <glyph glyph-name="cheyuanshenhe" unicode="&#58926;" d="M835.634 793.038H544.032c-68.422 0-124.955-57.098-124.955-125.519v-242.871H252.429c-17.132 0-31.021-14.079-31.021-31.211s13.889-31.21 31.021-31.21h166.648v-241.501h-32.42c-13.54 47.072-57.445 82.724-109.41 82.724s-95.869-35.652-109.41-82.724h-40.402V392.46c0 109.3 53.731 180.565 135.478 180.565h68.105c17.132 0 31.022 14.079 31.022 31.211s-13.89 31.21-31.022 31.21h-68.106c-56.71 0-108.048-24.472-143.387-67.985-35.241-43.389-54.512-104.238-54.512-175.001V88.45c0-17.132 15.176-30.147 32.309-30.147h70.514c13.54-47.072 57.445-82.724 109.41-82.724s95.869 35.652 109.41 82.724h244.433c13.54-47.072 57.446-82.724 109.41-82.724s95.87 35.652 109.41 82.724h78.786c17.133 0 30.685 13.015 30.685 30.147V667.518c0.002 68.422-55.326 125.52-123.746 125.52z m-558.388-756.29c-28.509 0-51.702 23.193-51.702 51.703s23.193 51.702 51.702 51.702 51.703-23.193 51.703-51.702c0-28.51-23.193-51.703-51.703-51.703z m463.255 0c-28.51 0-51.702 23.193-51.702 51.703s23.193 51.702 51.702 51.702c28.51 0 51.703-23.193 51.703-51.702 0-28.51-23.195-51.703-51.703-51.703z m156.46 83.978h-47.05c-13.54 47.072-57.445 82.724-109.41 82.724s-95.87-35.652-109.41-82.724H481.498V667.519c0 34.21 28.322 63.097 62.534 63.097h291.602c34.21 0 61.328-28.887 61.328-63.097v-546.793z"  horiz-adv-x="1024" />

    
    <glyph glyph-name="shouyeguanli" unicode="&#58927;" d="M555.489882 875.941647c10.962824 1.024 22.347294-1.204706 32.64753-7.168l473.991529-273.648941c25.901176-14.998588 35.237647-48.790588 19.998118-75.113412a54.814118 54.814118 0 0 0-75.053177-20.178823L555.489882 760.470588 206.426353 558.983529V28.611765h183.416471c26.624 0 48.188235-21.383529 48.188235-48.188236 0-26.624-21.805176-48.188235-48.188235-48.188235H168.658824a49.212235 49.212235 0 0 0-5.240471 0.301177 48.308706 48.308706 0 0 0-53.428706 47.887058V503.265882l-6.144-3.493647A54.814118 54.814118 0 0 0 28.912941 520.011294a55.175529 55.175529 0 0 0 20.058353 75.113412L522.902588 868.773647a54.693647 54.693647 0 0 0 32.587294 7.168zM542.117647 299.791059C542.117647 329.667765 566.211765 353.882353 596.329412 353.882353c29.936941 0 54.211765-24.214588 54.211764-54.091294v-318.945883c0-29.876706-24.094118-54.091294-54.211764-54.091294a54.151529 54.151529 0 0 0-54.211765 54.091294V299.791059z m224.135529 93.063529c0 29.876706 24.094118 54.091294 54.211765 54.091294 29.936941 0 54.211765-24.816941 54.211765-54.091294v-406.528c0-29.876706-24.094118-54.091294-54.211765-54.091294a54.573176 54.573176 0 0 0-54.211765 54.091294v406.588236z m224.13553-131.433412c0 29.876706 24.094118 54.151529 54.211765 54.15153 29.936941 0 54.211765-23.973647 54.211764-54.15153v-275.094588c0-29.876706-24.094118-54.091294-54.211764-54.091294a54.031059 54.031059 0 0 0-54.211765 54.091294v275.094588z"  horiz-adv-x="1144" />

    
    <glyph glyph-name="shuidianguanli" unicode="&#58929;" d="M512-81.92a381.3888 381.3888 0 0 0-270.7456 112.0256 384.9216 384.9216 0 0 0-113.152 272.7424c0 51.4048 19.0464 112.64 58.2656 186.9824 29.0304 54.9376 69.12 116.992 119.1936 184.32A2640.5888 2640.5888 0 0 0 476.4672 880.4352 48.64 48.64 0 0 0 511.8976 896c13.3632 0 26.1632-5.632 35.4816-15.5648a2550.9888 2550.9888 0 0 0 122.112-142.848c17.408-21.8624 14.336-54.1696-6.656-72.192a48.2816 48.2816 0 0 0-69.632 6.8608A2528.4608 2528.4608 0 0 1 512 769.536a2626.4576 2626.4576 0 0 1-128.6656-158.72c-58.368-78.5408-156.416-223.1296-156.416-307.968 0-74.9568 29.3376-145.6128 82.7904-198.8096A284.672 284.672 0 0 1 512 20.6848a284.672 284.672 0 0 1 202.2912 83.3536 278.8864 278.8864 0 0 1 82.7904 198.8096c0 29.184-12.5952 84.736-72.448 184.1152a52.2752 52.2752 0 0 0 15.7184 70.6048 48.3328 48.3328 0 0 0 68.096-16.384c58.8288-97.6384 87.4496-175.6672 87.4496-238.3872 0-52.1728-10.24-102.7584-30.464-150.4256a382.976 382.976 0 0 0-82.688-122.368 383.1808 383.1808 0 0 0-121.9584-82.0224 382.976 382.976 0 0 0-148.7872-29.8496z m-34.9696 207.9232a38.6048 38.6048 0 0 0-17.6128 4.3008 41.5744 41.5744 0 0 0-21.0944 45.1584l14.4896 71.0656-79.9744-0.4096H372.736a39.4752 39.4752 0 0 0-35.7376 23.552 42.24 42.24 0 0 0 5.3248 43.7248l163.9424 204.6464a38.5024 38.5024 0 0 0 46.3872 11.264c16.1792-7.424 25.6-25.0368 23.1936-43.1616l-10.496-78.2336h79.872c15.4624 0 29.5424-9.3696 35.9936-24.064a42.2912 42.2912 0 0 0-6.144-43.9296l-168.192-199.8848a39.0144 39.0144 0 0 0-29.7984-14.0288z"  horiz-adv-x="1024" />

    
    <glyph glyph-name="caiwuguanli" unicode="&#58931;" d="M904.29566 690.005705s68.553384-42.899759 69.523479-141.579983v-452.441553s3.772592-157.69434-163.730487-173.647015H164.005347s-150.364733-0.485048-163.730487 173.647015V722.342207S-12.444164 877.665204 153.010937 895.989221h577.476026s181.892822 5.119946 173.808697-205.875727z m0-594.021536V548.425722s-0.592836 98.087389-94.153114 104.123535H243.607036s-37.240871 2.802497-34.76174 34.76174c0 0-0.323365 34.761739 34.76174 34.761739l591.111251-2.640814s6.143935 97.278976-104.285218 106.926032H174.784181s-104.985842 0.053894-104.931948-104.015747v-626.358038s-4.904369-104.123536 94.153114-104.123536h646.137199s93.236913 8.623067 94.153114 104.123536z m-243.493858 204.151114h-139.046957v-69.523479h139.046957a34.815634 34.815634 0 0 0 0-69.631267h-139.046957v-34.707845a34.761739 34.761739 0 0 0-69.523479 0v34.707845H313.130514a34.815634 34.815634 0 0 0 0 69.631267h139.154746v69.523479H313.130514a34.761739 34.761739 0 0 0 0 69.523478h139.154746v25.491943a103.800171 103.800171 0 0 0-30.342417 16.814981l-130.423891 104.4469a34.923422 34.923422 0 0 0-5.497205 48.935906 34.923422 34.923422 0 0 0 48.882012 5.389417l130.585573-104.393006a34.38448 34.38448 0 0 1 43.115335 0l130.531679 104.393006a35.03121 35.03121 0 0 0 48.828118-5.443311 34.653951 34.653951 0 0 0-5.389417-48.882012l-130.585573-104.554689a104.015747 104.015747 0 0 0-30.180735-16.707192v-25.438048h139.046957a34.815634 34.815634 0 0 0 0-69.523479z"  horiz-adv-x="1024" />

    
    <glyph glyph-name="zhuanxianshenhe" unicode="&#58933;" d="M6.68249 650.887339s-21.340856-43.759532 12.34105-63.968676c0 0 46.022956-29.208949 69.627237 24.682101l39.286575 68.441633v-516.437928s-4.472957-151.541631 110.045523-235.773342c0 0 114.51848-102.17743 244.665365-15.682295 0 0 114.572371 58.364007 123.572176 243.587544V584.655239s4.472957 127.991243 88.704668 176.223732c0 0 83.099998 47.208559 144.80525-15.682295 0 0 75.285796-53.89105 67.363812-172.882487l0.538911-638.878393s-6.089689-63.807003 54.537742-56.046691c0 0 21.286965 4.419066 38.154863 35.837548l124.596107 178.541047s24.682101 38.154863-12.394942 62.890855c0 0-28.023346 22.418677-57.232295-12.394941a1098.676827 1098.676827 0 0 1-59.172372-79.489299l-0.269455 539.826644s-5.65856 170.672954-127.991243 231.300385c0 0-114.572371 80.836574-243.695326-11.209339 0 0-106.704278-89.83638-104.009726-263.95836 2.58677-162.804861-1.508949-354.710888-1.508949-354.710889s12.34105-209.959529-127.991243-235.773341c-73.992411-13.580544-174.06809 54.968871-174.607 204.354859l1.724513 661.243179S218.797661 888.924105 187.43307 892.319241c0 0-24.682101 15.736186-53.891049-17.945719L6.68249 650.887339z"  horiz-adv-x="1132" />

    
    <glyph glyph-name="xinwenguanli" unicode="&#58934;" d="M968.021333 764.416c49.379556 0 89.429333-40.049778 89.429334-89.486222V-15.303111c0-49.493333-40.049778-89.543111-89.429334-89.543111H226.588444a89.486222 89.486222 0 0 0-89.429333 89.543111V674.929778c0 49.493333 40.049778 89.486222 89.429333 89.486222h741.432889z m0.170667-261.518222V611.441778c0 35.669333-28.899556 64.512-64.512 64.512H290.929778c-35.612444 0-64.568889-28.842667-64.568889-64.512V48.128c0-35.612444 28.956444-64.512 64.568889-64.512h612.750222c35.612444 0 64.512 28.899556 64.512 64.512V502.897778z m-80.099556-375.580445c20.48 0 41.415111-19.342222 35.669334-51.712-3.697778-20.821333-16.668444-38.343111-37.091556-38.343111H316.871111a37.091556 37.091556 0 0 0-37.148444 38.343111c1.649778 34.759111 19.342222 51.768889 39.822222 51.768889h568.547555z m-0.284444 145.806223c20.48 0 37.262222-18.204444 37.262222-39.367112 0-21.162667-16.725333-50.460444-37.262222-50.460444H315.562667c-20.48 0-35.555556 29.127111-35.555556 50.232889s15.132444 39.594667 35.669333 39.594667H887.808z m-544.085333 132.551111h-37.888c-21.219556 0-36.522667 20.081778-36.522667 51.712 0 21.162667 17.180444 38.343111 38.343111 38.343111h230.115556c21.162667 0 38.343111-17.180444 38.343111-38.343111 0-37.091556-16.839111-51.768889-38.001778-51.768889H343.722667z m520.078222 216.519111c28.444444-1.365333 59.847111-32.426667 61.269333-60.871111h0.170667v-2.673778l-0.113778-147.342222 0.113778-14.222223c0-29.752889-31.744-63.544889-61.098667-64.853333v-0.227555h-2.616889l-147.342222 0.056888h-14.222222c-30.606222 0-65.080889 34.360889-65.080889 64.967112l0.056889 14.222222V561.265778h0.113778c1.422222 29.354667 35.157333 60.984889 64.910222 60.984889h14.222222l146.944 0.056889h2.673778v-0.113778z m-19.797333-170.609778v51.2a38.4 38.4 0 0 1-38.4 38.286222h-51.086223a38.343111 38.343111 0 0 1-38.343111-38.343111v-51.143111c0-21.162667 17.180444-38.343111 38.343111-38.343111h51.086223a38.4 38.4 0 0 1 38.4 38.343111z m-204.856889 354.360889H132.152889c-28.501333-1.422222-41.927111-15.985778-41.927111-44.771556v-696.035555c0-21.219556-18.773333-38.343111-39.879111-38.343111-28.444444 0-50.289778 17.066667-50.289778 38.343111V806.513778C0 855.950222 40.049778 896 89.486222 896H882.062222c21.162667 0 38.286222-22.243556 38.286222-50.688a39.936 39.936 0 0 0-39.253333-39.367111h-241.948444z"  horiz-adv-x="1080" />

    
    <glyph glyph-name="zichanguanli" unicode="&#58935;" d="M874.839087 271.856805c95.586768-34.149102 13.1579-134.394893 13.1579-134.394893-200.491581-319.98784-543.979329-209.041656-543.979329-209.041656C13.380622 35.065803 0.581108 365.702839 0.581108 365.702839-10.068087 719.839782 275.719453 847.066947 275.719453 847.066947c79.305786 50.53248 115.195623-29.643674 115.195623-29.643673l145.044088-370.622716 338.828724-174.943753z m-316.659967-268.124211c194.194221 34.302696 264.540347 194.143023 264.540347 194.143023L465.408245 383.468564l-152.570202 375.435334C33.655052 616.573306 100.110126 321.518918 100.110126 321.518918c21.349589-134.394893 140.282669-232.387969 140.282669-232.387969 150.368686-125.53763 317.786324-85.347157 317.786325-85.347157z m444.757499 410.096416s14.949832-108.847064-89.596596-57.649009L623.200649 488.424576s-34.097904 4.351835-46.897418 55.549889L466.432206 818.600829S435.457383 898.009012 516.555101 895.909891c0 0 341.337429 6.450955 460.782491-356.287261 0 0 12.799514-25.599027 25.599027-125.844818z m-342.822173 154.771719l254.761519-120.622616c-40.446463 310.618596-356.799242 361.253472-356.799242 361.253472l102.037723-240.630856z"  horiz-adv-x="1024" />

    
    <glyph glyph-name="shanghuguanli" unicode="&#58936;" d="M1313.109333 70.792533s65.194667-157.218133-104.379733-177.3568H521.762133s-97.6896-10.24-127.1808 78.165334c0 0-6.9632 35.771733-4.027733 61.781333 0 0 30.9248 182.408533 235.7248 246.442667 0 0 197.358933 66.082133 416.017067 11.605333 0 0 205.550933-27.511467 270.813866-220.637867z m-111.4112-83.626666c43.144533-5.461333 30.5152 33.450667 30.5152 33.450666-1.570133 61.0304-73.045333 119.125333-73.045333 119.125334-78.711467 64.170667-212.036267 74.683733-212.036267 74.683733-156.603733 15.291733-214.357333-4.096-214.357333-4.096s-85.1968-7.918933-165.546667-63.351467c-80.349867-55.432533-84.309333-132.5056-84.309333-132.5056-7.645867-33.928533 28.125867-27.511467 28.125867-27.511466l690.653866 0.2048zM361.813333 247.808c60.757333 1.2288 55.5008-55.432533 55.5008-55.432533-10.6496-42.666667-55.5008-38.434133-55.5008-38.434134-84.241067 4.3008-127.249067-10.4448-127.249066-10.4448-122.6752-27.8528-137.6256-114.551467-137.6256-114.551466-21.367467-52.565333 30.242133-41.437867 30.242133-41.437867l169.096533-0.750933s54.135467 2.730667 55.978667-40.823467c2.4576-59.665067-60.757333-52.155733-60.757333-52.155733l-140.834134 0.955733c-69.358933-5.3248-94.890667 13.653333-94.890666 13.653333-82.1248 51.063467-49.152 143.1552-49.152 143.1552 25.6 108.817067 132.3008 155.648 132.3008 155.648 88.541867 47.035733 222.890667 40.618667 222.890666 40.618667zM858.385067 896a273.066667 273.066667 0 1 0 0-546.133333 273.066667 273.066667 0 0 0 0 546.133333z m0-457.386667a184.32 184.32 0 1 1 0 368.64 184.32 184.32 0 0 1 0-368.64zM338.807467 697.821867a204.8 204.8 0 1 0-0.068267-409.668267 204.8 204.8 0 0 0 0 409.6z m0-334.506667a129.706667 129.706667 0 1 1-0.136534 259.413333 129.706667 129.706667 0 0 1 0.136534-259.413333z"  horiz-adv-x="1365" />

    
    <glyph glyph-name="huoyuanshenhe" unicode="&#58937;" d="M46.386096 583.122963a31.791838 31.791838 0 0 0-7.704157 5.753737 49.638177 49.638177 0 0 0 0.487605 70.117583 34.424905 34.424905 0 0 0 8.484325 6.192582L485.328013 885.730554a49.735698 49.735698 0 0 0 59.536556 0.780167l429.28734-203.965123a33.157132 33.157132 0 0 0 9.362014-6.582665c9.362014-9.362014 14.530626-22.332304 14.286823-35.595157a50.125782 50.125782 0 0 0-14.725668-34.522426 31.157952 31.157952 0 0 0-7.167791-5.363654l-438.795635-249.848742a49.540656 49.540656 0 0 0-61.243174-0.780168L46.386096 583.122963z m469.124659 222.591629l-363.753243-183.241915L506.392544 429.819987l364.045806 207.280836-354.927595 168.613769z m421.388141-312.944814a39.057151 39.057151 0 0 0 37.253013-68.508487l-436.455132-236.975973a37.93566 37.93566 0 0 0-21.698417-8.874409 33.059611 33.059611 0 0 0-4.876049-0.487605 33.059611 33.059611 0 0 0-4.924809 0.487605 38.033181 38.033181 0 0 0-21.698417 8.874409L48.043953 424.261291a39.057151 39.057151 0 0 0 37.253013 68.508487l425.825345-231.173476 425.776585 231.173476z m0-152.474048a39.008391 39.008391 0 0 0 37.253013-68.557246l-436.455132-236.975974a38.276983 38.276983 0 0 0-21.698417-8.825648 33.059611 33.059611 0 0 0-4.876049-0.487605 33.059611 33.059611 0 0 0-4.924809 0.487605 38.374504 38.374504 0 0 0-21.698417 8.776888l-436.455132 236.975973a39.057151 39.057151 0 0 0 37.253013 68.606007l425.825345-231.173475 425.776585 231.124715z m0-152.474047a39.008391 39.008391 0 0 0 37.253013-68.557246l-436.455132-236.975974a38.276983 38.276983 0 0 0-21.698417-8.825648 41.300134 41.300134 0 0 0-4.876049-0.487605 41.105092 41.105092 0 0 0-4.924809 0.487605 38.374504 38.374504 0 0 0-21.698417 8.776888L48.043953 119.215676a39.057151 39.057151 0 0 0 37.253013 68.606007l425.825345-231.173475 425.776585 231.124715z"  horiz-adv-x="1024" />

    
    <glyph glyph-name="zulinguanli" unicode="&#58938;" d="M177.806285 495.616c-19.456 0-34.816 15.36-34.816 34.816V547.84c0 19.456 15.36 34.816 34.816 34.816h17.408c19.456 0 34.816-15.36 34.816-34.816v-17.408c0-19.456-15.36-34.816-34.816-34.816h-17.408z m133.12 0c-19.456 0-34.816 15.36-34.816 34.816V547.84c0 19.456 15.36 34.816 34.816 34.816h17.408c19.456 0 34.816-15.36 34.816-34.816v-17.408c0-19.456-15.36-34.816-34.816-34.816h-17.408z m150.528 0h-17.408c-19.456 0-34.816 15.872-34.816 34.816V547.84c0 19.456 15.36 34.816 34.816 34.816h17.408c19.456 0 34.816-15.36 34.816-34.816v-17.408c0-18.944-15.36-34.816-34.816-34.816zM142.990285 271.36v17.408c0 19.456 15.36 34.816 34.816 34.816h17.408c19.456 0 34.816-15.36 34.816-34.816v-17.408c0-19.456-15.36-34.816-34.816-34.816h-17.408c-19.456 0-34.816 15.36-34.816 34.816z m133.12 129.536v17.408c0 19.456 15.36 34.816 34.816 34.816h17.408c19.456 0 34.816-15.872 34.816-34.816v-17.408c0-19.456-15.36-34.816-34.816-34.816h-17.408c-19.456 0-34.816 15.36-34.816 34.816z m-133.12 0v17.408c0 19.456 15.36 34.816 34.816 34.816h17.408c19.456 0 34.816-15.36 34.816-34.816v-17.408c0-19.456-15.36-34.816-34.816-34.816h-17.408c-19.456 0-34.816 15.872-34.816 34.816z m764.416-407.552l-0.512 363.52-218.112 112.64-54.272-37.376v-438.784h272.896z m50.688 422.4c20.992-8.704 26.624-30.72 26.624-41.472v-423.936c0-17.408-12.8-31.744-29.696-33.792v-1.024H49.294285s-49.152 1.536-49.152 32.768v110.08c0 19.456 15.872 34.816 34.816 34.816s37.888-15.872 37.888-35.328v-66.56h486.4l-0.512 745.472L459.406285 808.96 75.918285 612.864v-385.536c0-21.504-20.992-40.96-40.448-40.96S0.142285 203.776 0.142285 225.28V629.248c-0.512 18.944-0.512 36.352 15.872 44.544L446.094285 891.904c8.192 4.096 17.408 5.12 25.6 2.048 5.632-0.512 10.752-2.56 15.36-5.632l133.632-96.256c16.896-13.312 13.824-43.52 13.824-45.568v-222.208l27.648 19.456c3.584 2.56 7.68 4.096 12.288 5.12 9.216 3.584 19.456 3.072 28.672-1.536l254.976-131.584z"  horiz-adv-x="1024" />

    
    <glyph glyph-name="daiban" unicode="&#58940;" d="M856.733538 797.223385H561.230769v49.624615C561.230769 873.511385 539.136 896 511.842462 896H167.384615C140.012308 896 118.153846 874.062769 118.153846 847.005538v-938.732307h98.382769v46.355692l0.07877 2.638769V402.116923h246.153846v-49.624615c0-26.663385 21.976615-49.152 49.112615-49.152h344.851692c27.175385 0 49.112615 22.016 49.112616 49.152V748.071385c0 26.663385-21.976615 49.152-49.112616 49.152"  horiz-adv-x="1024" />

    
    <glyph glyph-name="xiala" unicode="&#58941;" d="M910.210086 98.642311L141.19634 871.638227a82.374013 82.374013 0 0 1-116.961996 0 83.511775 83.511775 0 0 1 0-117.644654l827.494744-831.818242a82.374013 82.374013 0 0 1 116.961996 0l827.494745 831.818242a83.05667 83.05667 0 0 1 0 117.644654 82.374013 82.374013 0 0 1-116.961996 0L910.210086 98.642311"  horiz-adv-x="1820" />

    
    <glyph glyph-name="zulinyewu" unicode="&#58942;" d="M769.525106 594.399319a395.285787 395.285787 0 0 0 112.09532 31.59149L579.34434 881.925447a59.261277 59.261277 0 0 1-76.429617 0L21.090043 473.937702a59.174128 59.174128 0 0 1-6.928341-83.314383 59.108766 59.108766 0 0 1 83.270809-6.841191l7.778042 6.514383v-469.841702c0-20.436426 16.514723-36.929362 36.994724-36.929362h601.044425c-25.708936 14.379574-54.163064 31.678638-81.484255 55.05634a400.863319 400.863319 0 0 0-84.774128 112.814298c-21.830809 48.476596-35.818213 109.80766-35.818213 188.938894 0 240.618213 205.213957 343.257872 228.330213 354.06434zM319.052255 202.577702h114.753362v114.448341h-114.753362v-114.448341zM277.133617 747.149617a44.445957 44.445957 0 0 1-44.445957 44.489532H148.153191a44.358809 44.358809 0 0 1-44.337021-44.489532v-156.977021l173.339234 144.689021v12.288M1011.101957 371.995234c-15.033191 0-29.06417-5.795404-39.652766-16.427574a55.622809 55.622809 0 0 1-16.492936-39.78349c0-14.924255 5.773617-29.020596 16.405788-39.587404 21.351489-21.395064 58.237277-21.307915 79.479829-0.065362a56.08034 56.08034 0 0 1-0.087149 79.392681 55.339574 55.339574 0 0 1-39.652766 16.471149M932.667915 567.557447c-181.923404 0-330.076596-148.109617-330.076596-330.163745 0-182.010553 148.153191-330.011234 330.076596-330.011234 182.054128 0 330.098383 148.000681 330.098383 330.011234 0 182.054128-148.044255 330.163745-330.098383 330.163745m157.826723-331.122383a111.398128 111.398128 0 0 0-79.392681-32.942298 111.202043 111.202043 0 0 0-56.821106 15.882894l-71.985021-71.985022 32.811574-32.833361a27.996596 27.996596 0 0 0 0-39.674554 28.214468 28.214468 0 0 0-39.739915 0l-32.768 32.811575-52.681532-52.725107a28.04017 28.04017 0 1 0-39.69634 39.739915l164.428255 164.362894a111.267404 111.267404 0 0 0 17.081192 136.192 111.310979 111.310979 0 0 0 79.370893 32.876936c29.979234 0 58.150128-11.677957 79.392681-32.92051 21.133617-21.133617 32.898723-49.369872 32.898724-79.436256 0-30.022809-11.65617-58.171915-32.898724-79.349106"  horiz-adv-x="1263" />

    
    <glyph glyph-name="shuidianyewu" unicode="&#58944;" d="M470.51834 71.061736l38.332377 191.73917h-191.855094l249.430943 307.026113-38.313057-191.913057h191.855095L470.51834 71.061736zM508.850717 896S67.622642 546.951245 67.622642 309.383245C67.622642 71.776604 265.196679-120.851321 508.850717-120.851321c243.654038 0 441.228075 192.685887 441.228075 430.234566C950.078792 546.951245 508.850717 896 508.850717 896z"  horiz-adv-x="1024" />

    
    <glyph glyph-name="zichanyewu" unicode="&#58945;" d="M463.851922 817.392941v-7.629804c0-148.660706 0.020078-297.321412-0.120471-446.002196 0-5.12 1.606275-8.533333 5.12-12.047059 106.777098-106.897569 213.453804-213.895529 320.190745-320.853333 1.264941-1.264941 2.871216-2.208627 4.276706-3.312941-115.832471-124.084706-320.672627-183.316078-508.787451-103.223216C68.909176 16.082824-34.655373 238.391216 10.561255 450.901333 59.01051 678.590745 262.023529 820.304314 463.851922 817.392941M541.31451 431.104V894.313412c218.192314 9.517176 463.088941-178.477176 462.988549-463.209412h-463.008628M907.00298 24.154353L577.375373 352.577255h465.177098c3.112157-85.694745-28.511373-222.830431-135.549491-328.422902"  horiz-adv-x="1044" />

    
    <glyph glyph-name="caichanyewu" unicode="&#58946;" d="M953.625098 58.327843c-35.217569-60.536471-94.147765-122.337882-165.044706-145.247372C685.798902-116.736 579.061961-115.952941 500.314353-115.952941c-78.747608 0-165.606902 1.305098-272.865882 29.033412-111.977412 31.342431-165.064784 145.227294-165.064785 145.227294s-72.603608 136.151843 0 319.528157C148.439843 581.170196 324.728471 652.408471 369.684078 668.310588c41.120627 14.516706 103.705098 29.033412 165.205334 29.033412 47.826824 0 122.558745-22.889412 142.155294-29.033412 34.55498-10.902588 200.222118-92.260392 276.580392-290.474666 51.742118-148.439843 24.95749-274.130824 0-319.528157z m-387.312941 332.960628c3.011765-3.614118 4.939294-7.147922 6.846745-10.842353a33.731765 33.731765 0 0 1 65.054118 12.609255c0 9.497098-3.915294 18.010353-10.219922 24.154352-0.863373 1.224784-1.546039 2.469647-2.469647 3.734589-19.255216 25.961412-50.999216 41.281255-91.818667 46.08v35.056941a28.129882 28.129882 0 0 1-56.219608 0v-34.795922c-65.455686-9.055373-106.576314-49.292549-106.576313-107.560157 0-32.045176 12.408471-58.347922 36.783686-77.502745 16.76549-13.05098 35.639216-20.660706 69.812706-28.571607v-120.490667c-15.520627 4.618039-28.41098 12.247843-36.843922 23.29098a52.505098 52.505098 0 0 0-8.031372 14.878118c-4.015686 14.416314-16.705255 25.21851-32.38651 25.21851-18.913882 0-34.253804-15.36-34.253804-34.293961 0-3.33302 1.003922-6.364863 1.867294-9.396706l-0.64251-0.200784c0.120471-0.341333 0.240941-0.64251 0.341334-1.003922 0.220863-0.582275 0.64251-0.963765 0.863372-1.566117 0.662588-1.706667 1.686588-3.112157 2.610196-4.698353 9.015216-20.118588 21.363451-36.623059 38.570667-48.248471 16.464314-11.00298 40.96-18.853647 67.905255-22.487843v-22.748863a28.109804 28.109804 0 1 1 56.219608 0v21.865412c38.932078 3.312941 69.270588 14.516706 90.352941 34.856157 19.596549 19.596549 30.117647 47.344941 30.117647 81.317647 0 35.860078-12.448627 62.162824-39.654902 82.261333-17.207216 11.946667-40.156863 21.042196-77.884235 29.173961-1.124392 0.240941-1.887373 0.401569-2.95153 0.662588v108.42353c13.57302-3.694431 24.897255-9.97898 32.607373-19.174902z m-129.445647-29.173961c0 23.090196 15.62102 40.618667 40.658823 48.107921v-94.669804a113.463216 113.463216 0 0 0-8.212078 3.031844c-21.945725 9.577412-32.446745 23.451608-32.446745 43.530039z m149.985882-176.469334c0-29.515294-19.656784-49.051608-53.127529-55.155451v109.82902c16.00251-4.075922 20.74102-6.123922 29.234196-10.681725 14.817882-8.131765 23.893333-24.395294 23.893333-43.971765z m100.151216 526.376157c-14.054902 7.489255-25.057882 12.127373-31.442824 14.21553-18.974118 6.164078-91.437176 29.05349-137.838431 29.05349-59.632941 0-120.309961-14.536784-160.205804-29.05349-3.694431-1.345255-8.633725-3.292863-14.095059-5.481412 0 0-34.093176 18.974118-56.922353 52.384627-17.548549 26.383059 4.537725 80.63498 53.328314 94.73004C372.334431 885.438745 440.96251 894.253176 509.289412 896c93.465098 0 147.435922-14.054902 190.785255-28.129882 32.527059-12.328157 69.109961-61.319529 53.308235-94.73004-15.781647-33.430588-66.379294-61.118745-66.379294-61.118745z"  horiz-adv-x="1024" />

    
    <glyph glyph-name="xiaoxizhongxin" unicode="&#58947;" d="M942.08 691.2h-81.92V814.08c0 45.056-36.864 81.92-81.92 81.92H81.92C36.864 896 0 859.136 0 814.08v-491.52c0-45.056 36.864-81.92 81.92-81.92h81.92V76.8c0-45.056 36.864-81.92 81.92-81.92h389.12l159.744-110.592c36.864-24.576 65.536-8.192 65.536 36.864V-5.12h81.92c45.056 0 81.92 36.864 81.92 81.92V609.28c0 45.056-36.864 81.92-81.92 81.92zM163.84 609.28v-286.72H81.92V814.08h696.32V691.2H245.76c-45.056 0-81.92-36.864-81.92-81.92zM389.12 281.6c-32.768 0-61.44 28.672-61.44 61.44 0 32.768 28.672 61.44 61.44 61.44 32.768 0 61.44-28.672 61.44-61.44 0-32.768-28.672-61.44-61.44-61.44z m204.8 0c-32.768 0-61.44 28.672-61.44 61.44 0 32.768 28.672 61.44 61.44 61.44 32.768 0 61.44-28.672 61.44-61.44 0-32.768-28.672-61.44-61.44-61.44z m204.8 0c-32.768 0-61.44 28.672-61.44 61.44 0 32.768 28.672 61.44 61.44 61.44 32.768 0 61.44-28.672 61.44-61.44 0-32.768-28.672-61.44-61.44-61.44z"  horiz-adv-x="1024" />

    
    <glyph glyph-name="guanlizhongxin" unicode="&#58948;" d="M1003.828214 680.458777L808.50998 875.777011a69.065347 69.065347 0 0 1-97.633519 0L515.558227 680.458777a69.014149 69.014149 0 0 1 0-97.633518l195.318234-195.318234c26.981051-26.981051 70.652467-26.981051 97.633519 0l195.318234 195.318234a69.014149 69.014149 0 0 1 0 97.633518z m-244.160592-244.160592l-195.318234 195.318234 195.318234 195.318234 195.318234-195.318234-195.318234-195.318234zM345.377936 838.812459H69.167747C31.025654 838.812459 0.1024 807.889206 0.1024 769.695915V493.588121C0.1024 455.39483 31.025654 424.471576 69.167747 424.471576h276.210189c38.142093 0 69.065347 30.923254 69.065347 69.065347V769.747113c0 38.142093-30.923254 69.065347-69.116544 69.065346z m0-552.420379H69.167747c-38.142093 0-69.065347-30.923254-69.065347-69.116544v-276.158992C0.1024-97.025549 31.025654-127.948803 69.167747-127.948803h276.210189c38.142093 0 69.065347 30.923254 69.065347 69.065347v276.21019c0 38.142093-30.923254 69.065347-69.116544 69.065346z m552.420379 0h-276.210189c-38.142093 0-69.065347-30.923254-69.065347-69.116544v-276.158992c0-38.142093 30.923254-69.065347 69.065347-69.065347h276.210189c38.142093 0 69.065347 30.923254 69.065347 69.065347v276.21019c0 38.142093-30.923254 69.065347-69.116544 69.065346z"  horiz-adv-x="1024" />

    
    <glyph glyph-name="tuichu" unicode="&#58951;" d="M747.742609 752.194783a452.563478 452.563478 0 0 0 79.560348-74.618435c23.240348-27.781565 43.097043-57.789217 59.703652-90.022957 16.606609-32.233739 29.206261-66.337391 37.843478-102.4 8.592696-35.973565 12.911304-72.525913 12.911304-109.523478 0-63.799652-11.753739-123.63687-35.350261-179.556174a470.461217 470.461217 0 0 0-95.49913-146.120348 453.765565 453.765565 0 0 0-141.267478-98.749217 417.702957 417.702957 0 0 0-173.545739-36.507826 415.565913 415.565913 0 0 0-172.655305 36.507826 459.01913 459.01913 0 0 0-141.757217 98.749217A459.330783 459.330783 0 0 0 82.142609 196.118261a463.382261 463.382261 0 0 0-34.816 179.556174c0 36.329739 4.140522 71.991652 12.466087 106.985739 8.281043 34.949565 20.034783 68.207304 35.305739 99.773217a443.970783 443.970783 0 0 0 56.676174 88.509218 492.766609 492.766609 0 0 0 75.642434 74.084174c14.60313 10.952348 30.319304 15.09287 47.237566 12.332521 16.918261-2.760348 30.72-11.308522 41.316174-25.733565 10.596174-14.380522 14.558609-30.497391 11.931826-48.350609-2.671304-17.808696-10.952348-32.233739-24.887652-43.186087A317.306435 317.306435 0 0 1 207.026087 523.709217a336.13913 336.13913 0 0 1-33.302261-148.123826 332.577391 332.577391 0 0 1 24.843131-128.133565 331.686957 331.686957 0 0 1 68.11826-104.937739 325.810087 325.810087 0 0 1 101.509566-70.967652c38.778435-17.497043 80.094609-26.267826 123.904-26.267826 43.720348 0 85.036522 8.770783 123.814956 26.267826a325.810087 325.810087 0 0 1 101.509565 70.967652 337.786435 337.786435 0 0 1 68.563479 104.937739c16.962783 40.158609 25.421913 82.810435 25.421913 128.133565a334.536348 334.536348 0 0 1-35.795479 151.730087 318.241391 318.241391 0 0 1-100.485565 117.804522 61.974261 61.974261 0 0 0-26.356869 42.162087c-3.027478 17.853217 0.489739 34.281739 10.462608 49.41913 9.928348 14.380522 23.507478 23.151304 40.781913 26.223305a60.994783 60.994783 0 0 0 47.727305-10.818783z m-255.643826-379.681392c-17.274435 0-32.055652 6.366609-44.343653 19.010783a63.577043 63.577043 0 0 0-18.387478 45.812869V828.326957c0 17.808696 6.144 33.257739 18.387478 46.302608a58.768696 58.768696 0 0 0 44.343653 19.500522c17.897739 0 32.946087-6.500174 45.189565-19.545044 12.332522-13.000348 18.432-28.493913 18.432-46.302608v-390.945392c0-17.808696-6.099478-33.124174-18.432-45.812869a60.460522 60.460522 0 0 0-45.189565-19.010783z"  horiz-adv-x="1024" />

    
    <glyph glyph-name="shenghuofuwu" unicode="&#58953;" d="M512-128C229.236364-128 0 101.236364 0 384S229.236364 896 512 896s512-229.236364 512-512-229.236364-512-512-512z m-26.624 826.507636s21.783273-37.794909 0.930909-70.190545c-20.898909-32.442182-35.374545-96.349091 0-129.629091 35.374545-33.28 37.143273-6.283636 37.143273-6.283636s-27.229091 25.181091-3.584 66.56c23.552 41.425455 36.258909 102.632727-34.490182 139.543272z m57.157818-41.425454s25.367273-37.794909-0.930909-88.203637c-26.298182-50.408727 15.406545-61.207273 25.413818-58.507636 9.960727 2.699636 16.290909 26.112 8.145455 45.009455-8.145455 18.897455-1.861818 27.089455 1.861818 43.240727 6.330182 27.880727-34.490182 58.461091-34.490182 58.461091z m-205.032727-364.450909c1.815273 0 13.591273 17.966545 0 28.765091-13.591273 10.798545-91.601455-7.214545-112.453818-21.597091-20.898909-14.429091-44.497455-36.910545-10.938182-64.791273 33.559273-27.927273 143.034182-68.421818 313.902545-66.606545 170.542545 1.815273 274.850909 34.210909 296.634182 88.203636 21.783273 53.992727-124.276364 72.890182-139.682909 66.606545-15.453091-6.330182-1.861818-27.927273 7.214546-36.910545 9.076364-8.983273 30.626909-28.392727-9.029819-45.009455-103.424-43.194182-243.153455-28.765091-322.094545-7.168-78.894545 21.550545-23.552 58.461091-23.552 58.461091z m410.065454 162.862545c-15.453091 45.009455-79.872 24.296727-79.872 24.296727s0.930909 12.567273 0.93091 18.013091c0 5.399273-13.777455 20.759273-58.088728 32.395637-30.813091 8.098909-24.482909-8.098909-24.482909-8.098909s39.936-6.283636 44.450909-29.696c6.144-31.557818-131.537455-41.425455-204.101818-21.597091-72.610909 19.781818 10.891636 44.078545 10.891636 44.078545s19.968 15.313455 0 15.313455-75.310545-12.567273-75.310545-43.194182v-125.067636c0-27.927273 9.076364-42.356364 9.076364-42.356364s23.598545-78.289455 144.244363-78.289455 147.874909 87.319273 147.874909 87.319273c23.598545 4.514909 23.598545 25.181091 23.598546 25.181091 66.187636 26.996364 76.194909 56.692364 60.741818 101.701818z m-77.777454-13.265454s48.221091 20.386909 51.898182-12.008728c3.630545-32.395636-52.130909-43.892364-52.130909-43.892363l0.232727 55.854545z"  horiz-adv-x="1024" />

    
    <glyph glyph-name="chehoufuwu" unicode="&#58954;" d="M512-128C229.236364-128 0 101.236364 0 384S229.236364 896 512 896s512-229.236364 512-512-229.236364-512-512-512z m270.754909 338.106182L554.449455 438.458182a149.038545 149.038545 0 0 1 7.633454 90.065454 162.443636 162.443636 0 0 1-45.335273 82.944 158.952727 158.952727 0 0 1-89.460363 45.940364c-34.490182 5.492364-66.699636 1.163636-96.488728-12.986182L439.063273 536.203636 363.752727 460.8 253.114182 569.111273a145.594182 145.594182 0 0 1-14.103273-96.535273 165.748364 165.748364 0 0 1 47.057455-89.460364c23.552-23.552 51.2-38.632727 82.990545-45.288727a149.317818 149.317818 0 0 1 90.018909 7.633455l228.352-228.305455c11.776-11.776 23.552-11.776 35.281455 0l57.716363 57.669818a26.996364 26.996364 0 0 1 9.960728 19.409455c0.418909 7.447273-2.141091 12.706909-7.633455 15.872z"  horiz-adv-x="1024" />

    
    <glyph glyph-name="fuxuanxuanzhong" unicode="&#58955;" d="M353.3824 432.5376l96.8704-181.248S607.6416 619.6224 855.8592 742.4c-6.0416-87.7056-30.208-163.6864 12.1344-257.2288-109.056-23.3984-333.0048-286.5152-405.6576-415.1296-102.912 122.7776-223.9488 216.3712-308.736 245.5552l199.7824 116.9408M0 794.112C0 850.3296 45.9776 896 101.888 896h820.224C978.3296 896 1024 850.0224 1024 794.112v-820.224c0-56.2688-45.9776-101.888-101.888-101.888H101.888C45.6704-128 0-82.0224 0-26.112V794.112z m51.2-0.1536v-819.9168c0-28.0576 22.784-50.8416 50.8416-50.8416h819.9168a50.8928 50.8928 0 0 1 50.8416 50.8416V793.9584A50.8928 50.8928 0 0 1 921.9584 844.8H102.0416A50.8928 50.8928 0 0 1 51.2 793.9584z"  horiz-adv-x="1024" />

    
    <glyph glyph-name="fuxuan" unicode="&#58956;" d="M0 794.112C0 850.3296 45.9776 896 101.888 896h820.224C978.3296 896 1024 850.0224 1024 794.112v-820.224c0-56.2688-45.9776-101.888-101.888-101.888H101.888C45.6704-128 0-82.0224 0-26.112V794.112z m51.2-0.1536v-819.9168c0-28.0576 22.784-50.8416 50.8416-50.8416h819.9168a50.8928 50.8928 0 0 1 50.8416 50.8416V793.9584A50.8928 50.8928 0 0 1 921.9584 844.8H102.0416A50.8928 50.8928 0 0 1 51.2 793.9584z"  horiz-adv-x="1024" />

    
    <glyph glyph-name="yonghu" unicode="&#58957;" d="M765.63456 66.206897A404.197517 404.197517 0 0 0 564.96587 13.241379c-72.986483 0-141.488552 19.244138-200.668689 52.965518a407.905103 407.905103 0 0 1-161.368276-168.92469A563.764966 563.764966 0 0 0 0.000353 331.034483C0.000353 643.072 252.928353 896 564.96587 896s564.965517-252.928 564.965518-564.965517c0-174.291862-78.918621-330.151724-202.963862-433.752276a407.905103 407.905103 0 0 1-161.368276 168.92469zM564.96587 154.482759a247.172414 247.172414 0 1 1 0 494.344827 247.172414 247.172414 0 0 1 0-494.344827z"  horiz-adv-x="1129" />

    
    <glyph glyph-name="suojindezhuangtai" unicode="&#58958;" d="M62.691272 601.870706h712.668366c34.60947 0 62.512074-29.387331 62.512075-65.327933 0-35.940603-27.902605-65.379131-62.512075-65.379131H62.691272C28.081802 471.163642 0.179197 500.60217 0.179197 536.59397s27.902605 65.327934 62.512075 65.327934z m0-304.98315h712.668366c34.60947 0 62.512074-29.438528 62.512075-65.379131s-27.902605-65.327934-62.512075-65.327934H62.691272c-34.60947 0-62.512074 29.387331-62.512075 65.327934 0 35.940603 27.902605 65.379131 62.512075 65.379131z m4.505375-294.129294h1091.273436c36.862157 0 69.270136-27.237038 70.345283-63.177641 1.126344-37.015749-29.028949-67.529424-67.017449-67.529424H70.52448c-36.862157 0-69.270136 27.237038-70.345283 63.177642-1.126344 37.015749 29.028949 67.580621 67.01745 67.580621zM1228.866563 600.79556v-433.539923L917.12535 384.025599 1228.866563 600.79556z m-67.068646 164.497375H70.52448c-36.862157 0-69.270136 27.237038-70.345283 63.177641C-0.947146 865.486326 29.208146 896 67.196647 896h1091.273436c36.862157 0 69.270136-27.237038 70.345283-63.177641 1.126344-37.015749-29.028949-67.580621-67.017449-67.580621z"  horiz-adv-x="1228" />

    
    <glyph glyph-name="zhankaidetubiao" unicode="&#58959;" d="M693.293603 843.861703v-593.672884c0-28.830666-24.480477-52.074324-54.420014-52.074324-29.939538 0-54.462663 23.243658-54.462663 52.074324V843.861703c0 28.830666 24.523126 52.074324 54.462663 52.074324s54.420014-23.243658 54.420014-52.074324z m-254.059581 0v-593.672884c0-28.830666-24.523126-52.074324-54.462663-52.074324s-54.420014 23.243658-54.420014 52.074324V843.861703c0 28.830666 24.480477 52.074324 54.420014 52.074324 29.939538 0 54.462663-23.243658 54.462663-52.074324z m-245.018011-3.753105v-909.061603c0-30.707218-22.689222-57.703981-52.62876-58.599608C110.752086-128.490889 85.333333-103.370679 85.333333-71.725184V837.336419C85.333333 868.043637 108.022556 895.040399 137.962093 895.936027c30.835165 0.938276 56.296567-24.181934 56.296567-55.827429zM692.397976-127.595262H331.246972L511.822474 132.093976 692.397976-127.595262z m137.030961 55.870078V837.336419c0 30.707218 22.689222 57.703981 52.62876 58.599608C912.892862 896.874303 938.311614 871.754092 938.311614 840.108598v-909.061603c0-30.707218-22.689222-57.703981-52.628759-58.599608-30.835165-0.938276-56.296567 24.181934-56.296567 55.827429z"  horiz-adv-x="1024" />

    
    <glyph glyph-name="gerenzhongxinxuanting" unicode="&#58961;" d="M512 614.765714A153.6 153.6 0 1 1 512 307.931429a153.6 153.6 0 1 1 0 306.834285M859.867429 83.382857l-39.424-37.449143A331.776 331.776 0 0 1 512 256.731429a331.702857 331.702857 0 0 1-307.638857-208.896l-40.228572 35.401142A457.508571 457.508571 0 0 0 51.2 384.731429 460.507429 460.507429 0 0 0 512 844.8c254.537143 0 460.8-206.043429 460.8-460.214857a457.728 457.728 0 0 0-112.932571-301.348572M0 384.731429c0-282.477714 229.229714-511.414857 512-511.414858s512 228.937143 512 511.414858C1024 666.989714 794.770286 896 512 896S0 667.062857 0 384.658286z"  horiz-adv-x="1024" />

    
    <glyph glyph-name="gerenzhongxinchangtai" unicode="&#58962;" d="M512 614.765714A153.6 153.6 0 1 1 512 307.931429a153.6 153.6 0 1 1 0 306.834285M859.867429 83.382857l-39.424-37.449143A331.776 331.776 0 0 1 512 256.731429a331.702857 331.702857 0 0 1-307.638857-208.896l-40.228572 35.401142A457.508571 457.508571 0 0 0 51.2 384.731429 460.507429 460.507429 0 0 0 512 844.8c254.537143 0 460.8-206.043429 460.8-460.214857a457.728 457.728 0 0 0-112.932571-301.348572M0 384.731429c0-282.477714 229.229714-511.414857 512-511.414858s512 228.937143 512 511.414858C1024 666.989714 794.770286 896 512 896S0 667.062857 0 384.658286z"  horiz-adv-x="1024" />

    
    <glyph glyph-name="chanpinfuwu" unicode="&#58963;" d="M512-77.385143A461.385143 461.385143 0 1 0 512.073143 845.531429 461.385143 461.385143 0 0 0 512-77.385143M512 896a512 512 0 1 1 512-512 512 512 0 0 1-512 512M298.861714 632.393143a68.169143 68.169143 0 1 1 0-136.411429 68.169143 68.169143 0 0 1 0 136.411429M732.891429 629.833143H396.946286V498.614857h335.798857a60.196571 60.196571 0 0 1 44.909714 22.674286 72.118857 72.118857 0 0 1 15.579429 43.227428 66.121143 66.121143 0 0 1-15.872 42.422858c-12.214857 14.336-29.842286 22.893714-44.617143 22.893714M298.861714 452.169143a68.169143 68.169143 0 1 1 0-136.411429 68.169143 68.169143 0 0 1 0 136.411429M732.891429 449.609143H396.946286V318.390857h335.798857a60.196571 60.196571 0 0 1 44.909714 22.674286 72.118857 72.118857 0 0 1 15.579429 43.227428 66.048 66.048 0 0 1-15.872 42.422858c-12.214857 14.336-29.842286 22.893714-44.617143 22.893714M298.861714 272.018286a68.169143 68.169143 0 1 1 0-136.411429 68.169143 68.169143 0 0 1 0 136.411429M732.891429 269.458286H396.946286v-131.291429h335.798857a60.196571 60.196571 0 0 1 44.909714 22.674286 72.118857 72.118857 0 0 1 15.579429 43.300571 66.048 66.048 0 0 1-15.872 42.422857c-12.214857 14.262857-29.842286 22.893714-44.617143 22.893715"  horiz-adv-x="1024" />

    
    <glyph glyph-name="chanpinfuwuxuanting" unicode="&#58964;" d="M512-77.385143A461.385143 461.385143 0 1 0 512.073143 845.531429 461.385143 461.385143 0 0 0 512-77.385143M512 896a512 512 0 1 1 512-512 512 512 0 0 1-512 512M298.861714 632.393143a68.169143 68.169143 0 1 1 0-136.411429 68.169143 68.169143 0 0 1 0 136.411429M732.891429 629.833143H396.946286V498.614857h335.798857a60.196571 60.196571 0 0 1 44.909714 22.674286 72.118857 72.118857 0 0 1 15.579429 43.227428 66.121143 66.121143 0 0 1-15.872 42.422858c-12.214857 14.336-29.842286 22.893714-44.617143 22.893714M298.861714 452.169143a68.169143 68.169143 0 1 1 0-136.411429 68.169143 68.169143 0 0 1 0 136.411429M732.891429 449.609143H396.946286V318.390857h335.798857a60.196571 60.196571 0 0 1 44.909714 22.674286 72.118857 72.118857 0 0 1 15.579429 43.227428 66.048 66.048 0 0 1-15.872 42.422858c-12.214857 14.336-29.842286 22.893714-44.617143 22.893714M298.861714 272.018286a68.169143 68.169143 0 1 1 0-136.411429 68.169143 68.169143 0 0 1 0 136.411429M732.891429 269.458286H396.946286v-131.291429h335.798857a60.196571 60.196571 0 0 1 44.909714 22.674286 72.118857 72.118857 0 0 1 15.579429 43.300571 66.048 66.048 0 0 1-15.872 42.422857c-12.214857 14.262857-29.842286 22.893714-44.617143 22.893715"  horiz-adv-x="1024" />

    
    <glyph glyph-name="gengduo1" unicode="&#58970;" d="M584.576 356.48c0.64 1.28 1.792 2.432 2.432 3.84a63.36 63.36 0 0 1-12.8 73.6L107.008 878.592a63.232 63.232 0 0 1-89.6-2.56c-24.064-25.6-23.04-66.048 2.56-90.368l418.944-398.976L21.504-18.176A64.128 64.128 0 0 1 65.536-128a63.104 63.104 0 0 1 44.032 17.92l462.848 448.896c0.896 0.896 1.28 2.176 2.176 3.072l2.048 1.792c3.584 3.84 5.504 8.448 7.936 12.8M1099.008 360.192a63.36 63.36 0 0 1-12.8 73.728L619.008 878.592a63.232 63.232 0 0 1-89.6-2.56c-24.064-25.6-23.04-66.048 2.56-90.368l418.944-398.976-417.408-404.864A64.128 64.128 0 0 1 577.536-128a63.104 63.104 0 0 1 44.032 17.92l462.848 448.896c0.896 0.896 1.28 2.176 2.176 3.072l2.048 1.792c3.584 3.84 5.504 8.448 7.936 12.8 0.64 1.28 1.792 2.432 2.432 3.84z"  horiz-adv-x="1152" />

    
    <glyph glyph-name="jiantou-zuo" unicode="&#58972;" d="M315.087568 355.217297a46.356757 46.356757 0 0 0-65.702054 0 46.661189 46.661189 0 0 0 0 65.868108L709.299892 882.162162a46.356757 46.356757 0 0 0 65.702054 0 46.661189 46.661189 0 0 0 0-65.868108L315.087568 355.217297M775.001946-44.723892a46.661189 46.661189 0 0 0 0-65.868108 46.356757 46.356757 0 0 0-65.702054 0L249.357838 350.512432a46.661189 46.661189 0 0 0 0 65.868109 46.356757 46.356757 0 0 0 65.702054 0L775.001946-44.696216"  horiz-adv-x="1024" />

    
    <glyph glyph-name="jiantou-you" unicode="&#58973;" d="M708.912432 355.217297a46.356757 46.356757 0 0 1 65.702054 0 46.661189 46.661189 0 0 1 0 65.868108L314.700108 882.162162a46.356757 46.356757 0 0 1-65.702054 0 46.661189 46.661189 0 0 1 0-65.868108L708.912432 355.217297M248.998054-44.723892a46.661189 46.661189 0 0 1 0-65.868108 46.356757 46.356757 0 0 1 65.702054 0L774.642162 350.512432a46.661189 46.661189 0 0 1 0 65.868109 46.356757 46.356757 0 0 1-65.702054 0L248.998054-44.696216"  horiz-adv-x="1024" />

    
    <glyph glyph-name="sousuo" unicode="&#58974;" d="M716.679114 682.320961a355.683768 355.683768 0 1 1-503.000075-503.000075 355.683768 355.683768 0 1 1 503.000075 503.000075z m-580.433928-580.433928a465.243071 465.243071 0 0 0 657.867781 657.867781 465.243071 465.243071 0 0 0-657.867781-657.867781z m869.051019-211.183238a63.610951 63.610951 0 0 0-89.912864 0L825.534473-19.447336a63.546956 63.546956 0 0 0 89.848868 89.848868l89.912864-89.848868a63.482961 63.482961 0 0 0 0-89.848869z"  horiz-adv-x="1024" />

    
    <glyph glyph-name="dingwei2" unicode="&#58975;" d="M512 896C323.470222 896 170.666667 732.273778 170.666667 530.318222S512-128 512-128s341.333333 456.305778 341.333333 658.318222C853.333333 732.273778 700.529778 896 512 896z m0-512C436.622222 384 375.466667 449.479111 375.466667 530.318222c0 80.782222 61.155556 146.204444 136.533333 146.204445s136.533333-65.422222 136.533333-146.204445S587.377778 384 512 384z"  horiz-adv-x="1024" />

    
    <glyph glyph-name="shanchu" unicode="&#58976;" d="M511.518118-126.855529c-281.961412 0-511.397647 229.436235-511.397647 511.397647 0 281.901176 229.436235 511.397647 511.397647 511.397647 281.931294 0 511.397647-229.496471 511.397647-511.397647 0.060235-281.961412-229.406118-511.397647-511.397647-511.397647z m0 983.461647c-260.336941 0-472.094118-211.757176-472.094118-472.064 0-260.246588 211.757176-472.094118 472.094118-472.094118 260.306824 0 472.064 211.757176 472.064 472.094118 0 260.306824-211.757176 472.064-472.064 472.064zM346.774588 186.819765l-32.918588 32.918588 362.496 362.496 32.918588-32.948706-362.496-362.465882M709.210353 219.768471l-32.918588-32.918589-362.496 362.465883 32.918588 32.948706 362.496-362.496"  horiz-adv-x="1024" />

    
    <glyph glyph-name="kuaisuzhaoche1" unicode="&#58977;" d="M230.849097 433.785905c5.461333-2.681905 8.143238-2.681905 13.604572-2.681905a29.93981 29.93981 0 0 1 27.209142 16.286476L350.510811 605.135238h67.974096a30.183619 30.183619 0 0 1 29.891047 29.891048c0 16.286476-13.604571 27.209143-29.891047 27.209143H331.493669a29.93981 29.93981 0 0 1-27.209143-16.335239L217.293288 471.868952a31.256381 31.256381 0 0 1 13.555809-38.034285z m960.463238-350.695619c-5.461333 21.74781-16.335238 40.764952-27.209143 57.051428h91.428572v-57.051428h-64.219429z m-144.14019-116.931048c-46.226286 0-86.991238 40.764952-86.991238 86.991238 0 48.956952 40.764952 87.04 86.991238 87.04 48.956952 0 87.04-38.083048 87.04-87.04 0-46.226286-38.083048-86.991238-87.04-86.991238z m-772.827429 0a87.576381 87.576381 0 0 0-86.991238 86.991238c0 48.956952 38.034286 87.04 86.991238 87.04 46.226286 0 86.991238-38.083048 86.991238-87.04 0-46.226286-40.764952-86.991238-86.991238-86.991238zM57.549288 140.190476H157.413669c-10.873905-16.335238-21.74781-35.352381-27.209143-57.10019H57.451764v57.051428z m91.721142 328.94781c2.730667 0 2.730667 2.730667 5.461334 5.461333l135.94819 247.417905h197.827048v-522.044953H57.549288v160.426667l91.721142 108.739048z m756.540953-386.048H415.75424c-5.461333 21.74781-13.653333 40.764952-30.622476 57.051428h544.475428c-10.24-16.286476-18.383238-35.303619-23.844571-57.051428h0.048762zM545.55843 836.217905h709.973334v-636.245334H545.55843l1.706667 636.245334h-1.706667zM1282.692145 896H518.349288a30.183619 30.183619 0 0 1-29.891048-29.891048v-86.991238H274.344716a33.54819 33.54819 0 0 1-27.209143-13.653333l-141.409523-258.243048-97.182477-114.200381a24.624762 24.624762 0 0 1-8.143238-19.017142v-320.853334c0-16.335238 13.604571-27.209143 29.891048-27.209143h99.961905a145.944381 145.944381 0 0 1 144.042666-116.882285c68.022857 0 127.75619 48.90819 141.409524 116.882285h490.057143c13.653333-67.974095 73.435429-116.882286 141.409524-116.882285a145.993143 145.993143 0 0 1 144.091428 116.882285h91.428572c16.335238 0 29.891048 10.873905 29.891047 27.209143V866.06019A30.183619 30.183619 0 0 1 1282.692145 896V896z"  horiz-adv-x="1316" />

    
    <glyph glyph-name="kuaisuzhaozhuanxian1" unicode="&#58978;" d="M849.749333 674.773333c-16.426667 0-26.154667-13.141333-26.154666-29.568v-436.352c0-135.424-95.616-245.632-213.162667-245.632-117.546667 0-223.018667 112.298667-223.018667 247.765334V591.658667c0 93.312-49.578667 144.384-112.298666 144.384-67.84 0-124.032-59.605333-124.032-145.322667v-599.808c0-16.426667 9.856-29.354667 26.282666-29.354667 16.469333 0 23.338667 15.658667 23.338667 32.085334V590.208c0 51.029333 29.184 96.426667 73.344 96.341333 43.349333-0.085333 63.786667-45.312 63.786667-96.341333l-0.469334-381.397333 0.298667-29.781334c6.485333-74.154667 39.978667-141.653333 89.130667-192.682666 50.602667-52.522667 114.858667-72.917333 183.765333-72.917334 150.4 0 263.978667 126.293333 263.978667 294.613334V645.632c0 16.426667-8.362667 29.141333-24.746667 29.141333M486.272 590.72l0.298667-381.866667c0-85.717333 41.386667-148.053333 120.192-149.546666 74.368-1.493333 116.650667 64.469333 116.650666 150.186666V644.138667c0 16.469333-8.362667 30.634667-24.746666 30.634666-16.469333 0-25.813333-13.141333-25.813334-29.568v-436.352c0.981333-70.826667-32.426667-99.968-66.133333-99.968-46.634667 0-69.973333 48.128-69.973333 99.157334v411.306666c-6.485333 74.154667-36.992 146.133333-78.762667 192.512C409.173333 866.133333 342.058667 896 273.152 896 122.709333 896 0.341333 759.04 0.341333 590.72v-599.808c0-16.426667 6.570667-29.354667 22.997334-29.354667s26.24 12.757333 26.24 29.184V593.066667c0 135.466667 105.642667 253.781333 223.146666 253.781333 117.546667 0 213.546667-120.746667 213.546667-256.170667M996.138667 662.613333L777.6 881.237333l-218.581333-218.538666a28.714667 28.714667 0 0 1-1.877334-38.912 25.984 25.984 0 0 1 20.437334-8.746667c7.936 0 13.141333 4.352 18.944 10.197333l180.864 177.92 180.864-176.469333c5.632-5.632 17.493333-11.648 23.338666-11.648 7.936 0 11.861333 3.114667 17.493334 8.746667 5.632 5.632 7.253333 10.965333 7.253333 18.944s-4.565333 14.336-10.24 19.968"  horiz-adv-x="1024" />

    
    <glyph glyph-name="kuaisuzhaohuo1" unicode="&#58979;" d="M656.57363 563.162074l2.578963 4.133926c7.205926 12.401778 3.072 28.330667-8.798815 35.043556L424.011852 732.918519c-11.908741 7.243852-24.651852 4.361481-31.706074-4.702815l-2.578963-4.664889c-7.812741-12.363852-2.578963-27.913481 9.329778-34.626371l225.773037-130.730666c11.908741-6.712889 24.500148-6.940444 31.744 4.93037M893.534815 166.532741l-367.881482-214.243556V373.229037l367.881482 212.878222v-419.574518z m-787.493926 2.69274l0.530963 270.146371V587.662222l369.664-213.143703v-422.229334l-150.565926 84.574815-219.591111 129.479111v2.88237z m389.12 676.257186l375.732148-217.012148-370.005333-210.413038-374.328889 217.694815 368.602074 209.730371z m448.284444-682.780445V611.062519c0 24.651852-14.487704 39.177481-42.097777 56.585481L532.859259 880.943407c-23.210667 18.849185-47.900444 15.928889-68.190815 4.361482L84.461037 664.727704C71.414519 656.004741 56.888889 637.155556 56.888889 609.583407v-435.275851c0-31.93363 15.928889-46.459259 26.130963-52.261926l204.724148-121.173334 194.711704-109.226666c1.517037-1.024 3.109926-2.048 4.626963-2.578963 9.329778-5.688889 20.176593-4.133926 27.913481 1.554963 1.024 0.530963 1.554963 0.530963 2.578963 1.024l405.579852 236.202666c8.722963 4.361481 13.046519 7.281778 17.408 14.52563 3.109926 5.157926 2.88237 18.849185 2.88237 21.769481v-1.441185z"  horiz-adv-x="1024" />

    
    <glyph glyph-name="kuaisufahuo1" unicode="&#58980;" d="M124.126609 165.843478H31.031652c-17.185391 0-31.031652-10.952348-31.031652-27.380869 0-17.185391 13.801739-27.692522 31.031652-27.692522h93.050435c17.229913 0 30.007652 10.50713 30.007652 27.692522 0.712348 16.473043-12.777739 27.425391-29.96313 27.425391z m657.986782 108.187826l-0.712348 6.455653-0.712347 2.849391-0.712348 2.893913-1.424696 3.561739-1.513739 2.760348-3.517217 4.452174-99.283479 101.064348c-12.198957 12.154435-33.124174 17.051826-45.32313 4.897391a30.72 30.72 0 0 1 0-43.720348l58.590609-55.296h-188.193392c-17.185391 0-30.764522-12.02087-30.764521-29.206261 0-17.14087 14.291478-29.161739 30.764521-29.161739h188.193392l-58.590609-55.296a30.72 30.72 0 0 1 0-43.675826c12.198957-12.198957 33.836522-5.698783 45.32313 6.455652l98.571131 100.218435 4.318609 5.030956 1.424695 2.137044 1.424696 3.561739 0.712348 2.893913 0.712347 2.849391 0.712348 4.274087z m-563.46713 25.956174H31.744c-17.185391 0-30.141217-9.705739-30.141217-26.89113s13.668174-29.829565 30.141217-29.829565h186.902261c17.185391 0 31.165217 12.644174 31.165217 29.829565 0.712348 17.185391-13.979826 26.89113-31.165217 26.89113z m143.181913 133.164522H31.744c-17.185391 0-30.141217-8.236522-30.141217-25.421913 0-17.185391 13.668174-31.298783 30.141217-31.298783h330.084174c17.185391 0 30.72 10.863304 30.72 28.048696 0.712348 16.473043-13.534609 28.672-30.72 28.672zM68.118261 602.37913c3.561739 12.198957 13.57913 32.678957 17.853217 40.559305l81.118609 155.737043c10.729739 20.034783 38.912 42.162087 69.453913 41.761392h523.397565c22.928696 0 52.98087-18.610087 63.755131-38.64487L908.911304 637.773913c4.274087-7.880348 10.50713-24.709565 14.113392-35.439304H68.118261z m897.113043 55.162435l-86.016 158.942609C858.468174 856.642783 804.997565 896 759.184696 896H236.855652C191.710609 896 143.137391 869.598609 121.677913 829.484522L35.706435 667.291826C9.750261 620.232348 6.500174 578.515478 6.500174 539.113739v-27.603478c0-17.14087 10.373565-29.161739 27.603478-29.161739 17.14087 0 26.980174 14.380522 26.980174 31.610435V547.528348H931.84c0.712348-4.274087 0.712348-8.592696 0.712348-12.154435v-526.781217c0-17.185391-13.57913-38.912-30.764522-38.912H102.177391c-19.456-1.602783-40.381217 14.336-40.381217 30.809043v37.932522c0 17.185391-10.551652 30.230261-27.737044 30.230261s-27.603478-10.418087-27.603478-27.603479v-34.05913c0-58.368 34.103652-94.074435 97.369044-94.074435l796.493913 1.602783c55.162435 0 87.574261 41.627826 87.574261 92.471652V535.863652c-1.602783 30.853565-4.318609 88.108522-22.973218 122.434783l0.267131-0.75687z"  horiz-adv-x="1024" />

    
    <glyph glyph-name="dingwei-" unicode="&#58981;" d="M510.976-111.134118C331.595294-111.134118 150.588235-63.728941 150.588235 42.164706c0 82.703059 123.964235 134.023529 239.134118 146.612706l6.264471 0.722823-159.201883 248.410353a310.934588 310.934588 0 0 0-14.215529 28.129883L218.352941 474.352941l-0.662588 3.312941a296.658824 296.658824 0 0 0-21.082353 109.808942C196.608 756.254118 337.558588 893.650824 510.976 893.650824 684.272941 893.590588 825.223529 756.254118 825.223529 587.414588c0-37.586824-7.107765-74.511059-21.082353-109.808941l-2.16847-5.300706h0.180706l-1.626353-3.252706c-4.638118-10.541176-9.637647-20.600471-15.179294-30.177882l-274.733177-444.175059-65.054117 103.544471-2.469647-0.240941c-105.411765-8.794353-172.574118-37.165176-190.162824-52.946824l-3.072-2.891294 3.192471-2.831059c23.009882-20.841412 111.435294-53.729882 251.542588-54.693647h12.528941c139.866353 0.903529 228.412235 33.731765 251.602824 54.512941l3.312941 2.95153-3.312941 2.831058c-12.890353 11.083294-59.753412 33.008941-131.855059 45.899295l55.41647 86.377411c115.471059-25.419294 179.019294-73.306353 179.019294-135.107764 0-105.833412-180.946824-153.238588-360.387764-153.238589z m0 863.774118c-73.908706 0-134.023529-58.608941-134.023529-130.650353 0-71.920941 60.114824-130.529882 134.023529-130.529882s134.083765 58.548706 134.083765 130.529882c0 72.041412-60.175059 130.590118-134.083765 130.590118z"  horiz-adv-x="1024" />

    
    <glyph glyph-name="yiyuyuekanfang" unicode="&#58984;" d="M342.51712 202.752h-158.08a26.944 26.944 0 1 1 0-53.312h158.08a26.944 26.944 0 0 1 0 53.312z m0 188.16h-158.08a26.944 26.944 0 1 1 0-53.312h158.08a26.944 26.944 0 0 1 0 53.312z m583.872-62.72a255.872 255.872 0 1 1-357.44-366.208 255.872 255.872 0 0 1 357.44 366.208z m-48.256-146.752l-135.488-125.44a25.728 25.728 0 0 0-36.352 0l-68.992 72.768a25.92 25.92 0 0 0 37.632 35.776l50.816-53.952 116.608 109.76a25.92 25.92 0 1 0 35.776-37.632v-1.28zM439.09312 14.656H102.32512a50.816 50.816 0 0 0-48.896 52.032V498.816H878.13312v217.6A105.984 105.984 0 0 1 775.92512 825.6H688.05312V864.448a26.944 26.944 0 1 1-53.312 0v-38.912H242.80512V864.448a27.264 27.264 0 0 1-54.528 0v-38.912H102.32512A105.984 105.984 0 0 1 0.11712 716.416v-647.872a105.984 105.984 0 0 1 102.208-109.12H439.09312a26.944 26.944 0 0 1 19.456 8.768 28.8 28.8 0 0 1 7.552 20.096 27.584 27.584 0 0 1-27.008 26.368zM632.88512 780.992h57.088v-69.568a27.584 27.584 0 1 0-55.168 0l-1.92 69.568z m-444.608 0h56.448v-69.568a27.584 27.584 0 1 0-55.232 0l-1.28 69.568z"  horiz-adv-x="1024" />

    
    <glyph glyph-name="xiala1" unicode="&#58985;" d="M1184.3584 883.882667a41.728 41.728 0 0 1-58.794667 0L596.923733 355.584 70.929067 881.237333a41.557333 41.557333 0 0 1-58.624-58.538666l555.264-555.008c8.277333-8.106667 18.773333-12.117333 29.610666-11.946667 11.093333-0.170667 21.76 4.266667 29.610667 12.032l557.568 557.226667a41.642667 41.642667 0 0 1 0 58.88M1184.3584 542.549333a41.728 41.728 0 0 1-58.794667 0l-528.64-528.298666-525.994666 525.653333a41.557333 41.557333 0 0 1-58.624-58.538667l555.264-555.008c8.277333-8.106667 18.773333-12.117333 29.610666-11.946666 11.093333-0.170667 21.76 4.266667 29.610667 12.032l557.568 557.226666a41.642667 41.642667 0 0 1 0 58.88"  horiz-adv-x="1196" />

    


  </font>
</defs>
</svg>
